<?xml version="1.0" encoding="utf-8"?>
<!-- Generator: Adobe Illustrator 16.0.5, SVG Export Plug-In . SVG Version: 6.00 Build 0)  -->
<!DOCTYPE svg PUBLIC "-//W3C//DTD SVG 1.1//EN" "http://www.w3.org/Graphics/SVG/1.1/DTD/svg11.dtd">
<svg version="1.1" xmlns="http://www.w3.org/2000/svg" xmlns:xlink="http://www.w3.org/1999/xlink" x="0px" y="0px" width="896px"
	 height="979px" viewBox="0 0 896 979" enable-background="new 0 0 896 979" xml:space="preserve">
<g id="publishing">
</g>
<g id="using">
</g>
<g id="installing">
	<g id="tiles" opacity="0.1">
		
			<linearGradient id="SVGID_1_" gradientUnits="userSpaceOnUse" x1="-836.9336" y1="1483.9971" x2="-836.9336" y2="1827.0479" gradientTransform="matrix(1 0 0 -1 1282 2463)">
			<stop  offset="0" style="stop-color:#FFFFFF;stop-opacity:0"/>
			<stop  offset="0.3268" style="stop-color:#000000"/>
		</linearGradient>
		<polyline fill="url(#SVGID_1_)" points="458.429,979.003 452.619,635.952 445.067,635.952 437.516,635.952 431.705,978.998 		"/>
		
			<linearGradient id="SVGID_2_" gradientUnits="userSpaceOnUse" x1="-1281.6152" y1="1706.998" x2="-891.3535" y2="1706.998" gradientTransform="matrix(1 0 0 -1 1282 2463)">
			<stop  offset="0" style="stop-color:#FFFFFF"/>
			<stop  offset="0.3268" style="stop-color:#000000"/>
		</linearGradient>
		<rect x="0.385" y="751.611" fill="url(#SVGID_2_)" width="390.262" height="8.781"/>
		<g>
			<g>
				
					<linearGradient id="SVGID_3_" gradientUnits="userSpaceOnUse" x1="-1255.5562" y1="1702.248" x2="-865.2944" y2="1702.248" gradientTransform="matrix(1 0 0 -1 1282 2463)">
					<stop  offset="0" style="stop-color:#FFFFFF"/>
					<stop  offset="0.3268" style="stop-color:#000000"/>
				</linearGradient>
				<rect x="26.444" y="756.363" fill="url(#SVGID_3_)" width="390.262" height="8.776"/>
				<ellipse cx="74.786" cy="777.772" rx="8.595" ry="3.97"/>
				<path d="M164.184,773.803c4.743,0,8.595,1.776,8.595,3.971c0,2.193-3.852,3.969-8.595,3.969c-4.747,0-8.594-1.775-8.594-3.969
					C155.59,775.579,159.438,773.803,164.184,773.803z"/>
			</g>
			<g>
				
					<linearGradient id="SVGID_4_" gradientUnits="userSpaceOnUse" x1="2135.373" y1="1702.248" x2="2525.6367" y2="1702.248" gradientTransform="matrix(-1 0 0 -1 3030.9883 2463)">
					<stop  offset="0" style="stop-color:#FFFFFF"/>
					<stop  offset="0.3268" style="stop-color:#000000"/>
				</linearGradient>
				<rect x="505.352" y="756.363" fill="url(#SVGID_4_)" width="390.264" height="8.776"/>
			</g>
		</g>
	</g>
	<g id="front_bolts">
		<g>
			<g>
				<path fill="#AAAAAA" d="M504.299,905.883l-19.102-0.987c0,0,2.666,5.062,9.553,11.949v11.944c0,1.766,4.275,3.192,9.549,3.192
					c5.274,0,9.55-1.427,9.55-3.192v-11.944c6.892-6.888,9.553-11.949,9.553-11.949L504.299,905.883z"/>
				<path fill="#989897" d="M516.823,905.238c-0.703,1.221-3.496,5.746-9.356,11.606v7.812v7.143
					c3.714-0.438,6.382-1.619,6.382-3.011v-2.012v-9.933c6.892-6.888,9.553-11.949,9.553-11.949L516.823,905.238z"/>
				<path fill-opacity="0.1" d="M498.754,937.837c4.743,0,8.59,1.775,8.59,3.969c0,2.195-3.847,3.97-8.59,3.97
					c-4.751,0-8.598-1.774-8.598-3.97C490.156,939.612,494.003,937.837,498.754,937.837z"/>
				<ellipse fill="#C3C3C3" cx="504.299" cy="904.897" rx="19.103" ry="7.396"/>
			</g>
		</g>
	</g>
	<path id="shadow" opacity="0.1" enable-background="new    " d="M444.678,764.225c99.936,0,180.953,19.457,180.953,43.459
		c0,23.998-81.017,43.455-180.953,43.455c-99.933,0-180.949-19.457-180.949-43.455C263.729,783.682,344.745,764.225,444.678,764.225
		z"/>
	<g id="npm-wombat_1_">
		<g>
			<g id="body__x2B__legs_1_">
				<g id="body_3_">
					<g id="body_4_">
						<path id="body_5_" fill="#986945" d="M660.087,607.162c-34.742-72.42-105.829-129.478-189.158-129.478
							c-83.317,0-154.404,57.058-189.151,129.478c-34.742,72.432-34.775,159.202-34.775,159.202
							c75.681,51.179,223.926,55.247,223.926,55.247s148.276-4.078,223.935-55.247C694.863,766.364,694.829,679.589,660.087,607.162
							z"/>
						<g id="body_shadow_1_">
							<path fill="#895D3D" d="M337.883,803.231c-86.229-77.936-32.62-216.682-32.62-216.682l24.977-34.757
								c0,0-8.415,2.769-16.38,5.096c-12.67,15.398-23.489,32.366-32.081,50.273c-32.368,67.482-34.606,147.4-34.758,158.007
								c0,0.02-0.005,0.039-0.005,0.059c0,0.129,0,0.251,0,0.354c0,0.024,0,0.049-0.005,0.069c0,0.093,0,0.182-0.003,0.256
								c0,0.039,0,0.073,0,0.108c0,0.049-0.001,0.098-0.001,0.137s0,0.064,0,0.094c0,0.064,0,0.113,0,0.113
								C272.026,783.283,304.978,795.056,337.883,803.231L337.883,803.231z"/>
							<path fill="#895D3D" d="M604.019,803.231c86.226-77.936,32.621-216.682,32.621-216.682l-24.981-34.757
								c0,0,8.423,2.767,16.384,5.094c12.672,15.401,23.484,32.368,32.079,50.275c32.365,67.478,34.609,147.4,34.757,158.002
								c0,0.02,0,0.039,0,0.059c0.01,0.134,0.01,0.256,0.01,0.359c0,0.024,0.005,0.044,0.005,0.069c0,0.093,0,0.177,0,0.256
								c0,0.039,0,0.068,0,0.108c0,0.049,0.005,0.093,0.005,0.132c0,0.04,0,0.064,0,0.094c0,0.069,0,0.118,0,0.118
								C669.877,783.283,636.921,795.056,604.019,803.231L604.019,803.231z"/>
						</g>
					</g>
					<g id="belly_1_">
						<path fill="#B58463" d="M470.919,650.336c-95.326,0-178.14,27.028-219.988,66.725c-3.92,29.075-3.93,49.304-3.93,49.304
							c75.683,51.179,223.928,55.252,223.928,55.252s148.276-4.083,223.935-55.252c0,0-0.01-20.214-3.926-49.274
							C649.098,677.379,566.271,650.336,470.919,650.336z"/>
					</g>
				</g>
				<g>
					<g>
						<path id="straps" fill="#2D5EA1" d="M377.16,454.695h38.315V610.69H377.16V454.695z M526.54,454.695h38.314V610.69H526.54
							V454.695z"/>
						<path fill="#2D5EA1" d="M676.46,649.628c-100.754,0-111.753-88.749-111.753-88.749h-50.775h-43.003l0,0h-10.315H377.16
							c0,0-11.002,88.749-111.758,88.749c-18.372,60.009-18.4,116.731-18.4,116.731c75.656,51.159,223.823,55.247,223.926,55.247
							l0,0c0.107,0,148.276-4.083,223.93-55.247C694.858,766.364,694.833,709.637,676.46,649.628z"/>
						<g>
							<path fill="#295590" d="M290.922,647.518c-7.792,1.357-16.276,2.11-25.52,2.11c-0.849,2.77-1.655,5.53-2.426,8.28
								c-0.017,0.054-0.032,0.112-0.049,0.167c-0.229,0.821-0.455,1.644-0.679,2.464c-0.042,0.147-0.082,0.306-0.126,0.453
								c-0.216,0.802-0.428,1.604-0.64,2.4c-0.039,0.148-0.081,0.295-0.118,0.448c-0.217,0.816-0.433,1.633-0.639,2.449
								c-0.023,0.084-0.044,0.173-0.067,0.262c-1.396,5.455-2.648,10.842-3.773,16.111c-0.002,0.015-0.007,0.024-0.007,0.04
								c-5.489,25.724-7.926,48.728-9.008,64.076c-0.002,0.04-0.005,0.079-0.01,0.118c-0.035,0.448-0.062,0.891-0.093,1.323
								c-0.005,0.118-0.012,0.231-0.022,0.345c-0.027,0.394-0.052,0.782-0.076,1.166c-0.01,0.147-0.015,0.295-0.024,0.442
								c-0.025,0.354-0.044,0.709-0.069,1.058c-0.01,0.168-0.018,0.33-0.028,0.487c-0.02,0.325-0.042,0.649-0.054,0.965
								c-0.013,0.201-0.022,0.393-0.035,0.585c-0.012,0.271-0.029,0.546-0.042,0.807c-0.025,0.448-0.05,0.891-0.07,1.324
								c-0.005,0.098-0.01,0.187-0.015,0.274c-0.015,0.364-0.034,0.714-0.049,1.059c-0.005,0.107-0.007,0.211-0.015,0.314
								c-0.01,0.324-0.027,0.645-0.039,0.959c-0.005,0.079-0.005,0.162-0.01,0.246c-0.015,0.35-0.029,0.693-0.042,1.023
								c0,0.024,0,0.044-0.002,0.068c-0.104,2.696-0.146,4.675-0.162,5.83c0,0.015,0,0.039,0,0.059c0,0.134,0,0.251-0.005,0.359
								c0,0.02,0,0.044,0,0.069c0,0.089-0.003,0.177-0.003,0.256c0,0.039,0,0.069,0,0.104c0,0.049,0,0.093,0,0.137
								c0,0.04,0,0.064-0.001,0.094c0,0.069,0,0.118,0,0.118c0.708,0.477,1.426,0.949,2.144,1.422
								c0.209,0.138,0.419,0.271,0.628,0.403c0.528,0.345,1.06,0.684,1.598,1.023c0.229,0.143,0.46,0.29,0.687,0.434
								c0.644,0.397,1.291,0.801,1.94,1.195c0.094,0.059,0.189,0.118,0.283,0.172c0.729,0.438,1.461,0.871,2.194,1.304
								c0.261,0.147,0.523,0.3,0.787,0.453c0.504,0.289,1.009,0.58,1.518,0.865c0.288,0.167,0.575,0.33,0.863,0.492
								c0.561,0.31,1.127,0.619,1.693,0.935c0.211,0.112,0.42,0.231,0.629,0.344c0.733,0.399,1.471,0.788,2.214,1.181
								c0.315,0.167,0.63,0.33,0.947,0.493c0.475,0.245,0.949,0.491,1.429,0.737c0.34,0.177,0.684,0.35,1.023,0.521
								c0.502,0.25,1.008,0.502,1.515,0.758c0.301,0.142,0.599,0.295,0.896,0.438c0.737,0.363,1.48,0.724,2.228,1.077
								c0.359,0.173,0.724,0.345,1.087,0.512c0.453,0.217,0.905,0.428,1.362,0.64c0.387,0.177,0.773,0.354,1.162,0.531
								c0.46,0.212,0.92,0.419,1.385,0.63c0.367,0.162,0.73,0.324,1.1,0.487c0.743,0.334,1.493,0.659,2.249,0.988
								c0.398,0.168,0.801,0.345,1.206,0.512c0.435,0.187,0.87,0.374,1.309,0.556c0.422,0.183,0.844,0.359,1.269,0.531
								c0.433,0.183,0.87,0.36,1.308,0.537c0.414,0.171,0.821,0.339,1.237,0.507c0.755,0.309,1.513,0.604,2.276,0.909
								c0.427,0.168,0.858,0.335,1.289,0.502c0.425,0.168,0.853,0.33,1.281,0.492c0.45,0.177,0.897,0.345,1.348,0.517
								c0.423,0.162,0.848,0.319,1.272,0.478c0.443,0.167,0.883,0.334,1.328,0.491c0.763,0.286,1.53,0.565,2.303,0.837
								c0.447,0.162,0.895,0.319,1.343,0.482c0.425,0.146,0.851,0.305,1.276,0.452c0.467,0.162,0.932,0.324,1.399,0.487
								c0.418,0.142,0.837,0.285,1.254,0.433c0.462,0.152,0.925,0.314,1.393,0.473c0.571,0.191,1.139,0.379,1.711,0.569
								c0.66,0.222,1.324,0.438,1.988,0.655c0.433,0.138,0.866,0.275,1.294,0.418c0.472,0.152,0.949,0.305,1.421,0.453
								c0.428,0.138,0.858,0.27,1.286,0.403c0.465,0.147,0.93,0.295,1.395,0.438c0.531,0.167,1.065,0.324,1.596,0.492
								c0.709,0.216,1.415,0.428,2.123,0.64c0.451,0.137,0.901,0.271,1.354,0.403c0.47,0.138,0.942,0.275,1.412,0.407
								c0.442,0.134,0.885,0.262,1.328,0.39c0.457,0.133,0.918,0.265,1.382,0.394c0.529,0.152,1.063,0.305,1.596,0.452
								c0.693,0.192,1.39,0.385,2.083,0.575c0.488,0.134,0.972,0.267,1.456,0.399c0.461,0.123,0.921,0.25,1.383,0.374
								c0.458,0.122,0.91,0.241,1.37,0.363c0.456,0.118,0.913,0.242,1.368,0.354c0.521,0.139,1.046,0.275,1.569,0.408
								c0.691,0.178,1.38,0.354,2.069,0.531c0.512,0.128,1.023,0.256,1.529,0.384c0.167,0.04,0.337,0.084,0.502,0.123
								C288.689,758.764,285.009,694.51,290.922,647.518z"/>
							<path fill="#295590" d="M676.46,649.628c-9.229,0-17.701-0.753-25.485-2.105c5.914,46.987,2.234,111.231-46.941,155.694
								c32.888-8.177,65.814-19.943,90.825-36.853C694.858,766.364,694.833,709.637,676.46,649.628z"/>
							<path fill="#295590" d="M415.885,509.89c-70.451,20.95-122.675,71.252-142.745,129.343
								c76.561,32.287,183.828-0.252,183.828-0.252s103.99-30.304,151.67-96.755C560.052,503.02,487.567,488.574,415.885,509.89z"/>
						</g>
						<path fill="#356CAC" d="M545.545,640.242h-74.616l0,0h-74.61c0,0-38.83,32.493-38.83,77.188c0,0,19.671,37.216,113.439,37.216
							c93.778,0,113.445-37.216,113.445-37.216C584.374,672.735,545.545,640.242,545.545,640.242z"/>
						<path fill="#2D5EA1" d="M452.491,640.242h-56.172c0,0-5.121,4.289-11.644,11.885
							C416.433,649.313,442.438,642.947,452.491,640.242z"/>
						<g id="stithes">
							<path fill="#3F81C3" d="M628.818,658.744c-2.475-0.787-4.935-1.653-7.311-2.573l1.161-2.977
								c2.311,0.896,4.709,1.742,7.117,2.509L628.818,658.744z M659.413,661.687c-2.534-0.257-5.062-0.571-7.522-0.936l-0.468,3.158
								c2.509,0.369,5.094,0.694,7.671,0.95L659.413,661.687z M644.433,659.457c-2.494-0.491-4.974-1.058-7.379-1.673l-0.792,3.095
								c2.46,0.625,5.003,1.205,7.546,1.713L644.433,659.457z M674.556,662.576c-2.549-0.05-5.103-0.147-7.587-0.29l-0.182,3.188
								c2.523,0.143,5.116,0.241,7.708,0.291L674.556,662.576z M615.723,650.243c-2.293-1.062-4.562-2.209-6.73-3.409l-1.54,2.799
								c2.233,1.235,4.566,2.411,6.923,3.508L615.723,650.243z M561.243,598.75l2.923-1.279c-1.005-2.302-1.945-4.669-2.786-7.03
								l-3.006,1.073C559.241,593.943,560.209,596.378,561.243,598.75z M559.097,583.233c-0.89-3.213-1.421-5.773-1.705-7.355
								l-3.144,0.571c0.304,1.648,0.851,4.308,1.771,7.636L559.097,583.233z M571.166,610.861c-1.309-2.13-2.563-4.339-3.729-6.572
								l-2.834,1.481c1.205,2.297,2.494,4.569,3.844,6.764L571.166,610.861z M602.518,642.968c-2.105-1.363-4.181-2.82-6.17-4.32
								l-1.928,2.544c2.048,1.55,4.187,3.05,6.36,4.457L602.518,642.968z M579.991,623.093c-1.604-1.91-3.163-3.912-4.634-5.954
								l-2.594,1.87c1.517,2.101,3.13,4.167,4.782,6.14L579.991,623.093z M590.515,633.875c-1.88-1.652-3.715-3.399-5.467-5.194
								l-2.278,2.232c1.803,1.851,3.696,3.651,5.63,5.358L590.515,633.875z"/>
							<path fill="#3F81C3" d="M470.945,743.469h-0.017c-2.607,0-5.204-0.029-7.723-0.089l0.078-3.193
								c2.489,0.06,5.066,0.09,7.645,0.09L470.945,743.469z M478.663,743.38l-0.073-3.193c2.572-0.059,5.146-0.151,7.64-0.274
								l0.156,3.188C483.862,743.223,481.266,743.316,478.663,743.38z M455.482,743.1c-2.587-0.127-5.187-0.295-7.715-0.492
								l0.249-3.178c2.497,0.192,5.065,0.354,7.628,0.482L455.482,743.1z M494.101,742.607l-0.242-3.178
								c2.559-0.201,5.116-0.442,7.607-0.708l0.344,3.168C499.285,742.165,496.693,742.411,494.101,742.607z M440.064,741.89
								c-2.598-0.275-5.181-0.605-7.681-0.964l0.453-3.158c2.465,0.354,5.013,0.674,7.574,0.954L440.064,741.89z M509.488,740.926
								l-0.452-3.158c2.549-0.369,5.082-0.778,7.527-1.226l0.57,3.144C514.654,740.138,512.077,740.557,509.488,740.926z
								 M424.734,739.686c-2.577-0.467-5.135-0.988-7.595-1.545l0.703-3.114c2.416,0.547,4.93,1.059,7.468,1.521L424.734,739.686z
								 M524.734,738.136l-0.703-3.114c2.509-0.565,4.993-1.19,7.385-1.85l0.851,3.08
								C529.826,736.921,527.298,737.561,524.734,738.136z M409.607,736.252c-2.549-0.703-5.048-1.472-7.434-2.273l1.022-3.03
								c2.327,0.788,4.772,1.535,7.264,2.229L409.607,736.252z M539.694,733.974l-1.012-3.025c2.449-0.826,4.841-1.717,7.103-2.646
								l1.211,2.952C544.673,732.208,542.219,733.123,539.694,733.974z M394.878,731.259c-2.484-1.02-4.878-2.111-7.109-3.237
								l1.437-2.849c2.159,1.093,4.476,2.145,6.882,3.134L394.878,731.259z M554.105,728.017l-1.442-2.849
								c0.265-0.133,0.521-0.26,0.771-0.394c2.028-1.048,3.977-2.16,5.792-3.312l1.702,2.706c-1.891,1.191-3.917,2.352-6.026,3.439
								C554.641,727.745,554.375,727.879,554.105,728.017z M380.94,724.169c-2.316-1.461-4.472-3.001-6.405-4.58l2.018-2.475
								c1.834,1.496,3.887,2.962,6.093,4.358L380.94,724.169z M567.339,719.584l-2.023-2.475c1.934-1.579,3.602-3.163,4.969-4.718
								l0.596,0.521l2.155-0.147l0.083,1.239l-0.438,0.492C571.205,716.185,569.404,717.893,567.339,719.584z M372.012,712.997
								l-3.188-0.222c0.182-2.578,0.512-5.199,0.989-7.798l3.139,0.576C372.496,708.033,372.182,710.542,372.012,712.997z
								 M568.897,705.549c-0.451-2.416-1.044-4.876-1.76-7.311l3.063-0.905c0.747,2.544,1.368,5.111,1.835,7.63L568.897,705.549z
								 M374.693,698.238l-3.062-0.9c0.716-2.454,1.577-4.949,2.556-7.408l2.967,1.18
								C376.213,693.48,375.386,695.877,374.693,698.238z M564.668,691.114c-0.916-2.282-1.965-4.599-3.104-6.888l2.853-1.426
								c1.186,2.366,2.264,4.767,3.212,7.129L564.668,691.114z M380.241,684.217l-2.857-1.421c1.141-2.288,2.4-4.595,3.753-6.853
								l2.739,1.638C382.569,679.771,381.347,682.004,380.241,684.217z M557.916,677.596c-1.272-2.13-2.661-4.271-4.121-6.371
								l2.626-1.82c1.495,2.155,2.923,4.359,4.231,6.549L557.916,677.596z M387.992,671.215l-2.618-1.82
								c1.463-2.105,3.029-4.211,4.653-6.253l2.499,1.988C390.944,667.122,389.417,669.169,387.992,671.215z M549.27,665.135
								c-1.565-1.974-3.218-3.926-4.905-5.806l2.375-2.135c1.731,1.929,3.425,3.931,5.029,5.952L549.27,665.135z M397.436,659.334
								l-2.371-2.14c1.695-1.875,3.415-3.665,5.117-5.323l0.465-0.452h1.064v2.017l0.699,0.719
								C400.757,655.768,399.084,657.509,397.436,659.334z M540.108,654.611h-7.693v-3.192h7.693V654.611z M524.729,654.611h-7.688
								v-3.192h7.688V654.611z M509.351,654.611h-7.688v-3.192h7.688V654.611z M493.974,654.611h-7.69v-3.192h7.69V654.611z
								 M478.595,654.611h-7.686v-3.192h7.686V654.611z M463.221,654.611h-7.688v-3.192h7.688V654.611L463.221,654.611z
								 M447.841,654.611h-7.688v-3.192h7.688V654.611z M432.463,654.611h-7.689v-3.192h7.689V654.611z M417.085,654.611H409.4
								v-3.192h7.685V654.611z"/>
						</g>
					</g>
					<g id="buttons">
						<g>
							<path fill="#B6ADA1" d="M397.186,595.562c-10.088,0-18.293-8.212-18.293-18.296c0-10.085,8.208-18.291,18.293-18.291
								c10.085,0,18.29,8.206,18.29,18.291C415.476,587.351,407.271,595.562,397.186,595.562z"/>
							<path fill="#C8BEAE" d="M397.186,563.964c7.345,0,13.302,5.955,13.302,13.302c0,7.345-5.957,13.302-13.302,13.302
								c-7.35,0-13.305-5.957-13.305-13.302C383.88,569.918,389.835,563.964,397.186,563.964z"/>
						</g>
						<g>
							<path fill="#B6ADA1" d="M544.832,595.562c-10.087,0-18.292-8.212-18.292-18.296c0-10.085,8.205-18.291,18.292-18.291
								c10.085,0,18.29,8.206,18.29,18.291C563.122,587.351,554.917,595.562,544.832,595.562z"/>
							<circle fill="#C8BEAE" cx="544.832" cy="577.266" r="13.302"/>
						</g>
					</g>
				</g>
				<g id="legs_1_">
					<g id="leg_3_">
						<path fill="#2D5EA1" d="M377.565,710.017c0,0,0,0,0-0.005c-12.85-23.211-40.183-39.239-71.826-39.239
							c-43.99,0-79.647,30.964-79.647,69.159c0,33.566,27.304,63.905,62.96,69.4c35.662,5.49,105.22,4.914,105.22,4.914
							C411.356,801.751,392.179,735.977,377.565,710.017z"/>
						<g id="shadow_8_">
							<path fill="#295590" d="M305.734,810.286c-99.832-59.055-16.834-137.939-16.805-137.969
								c-35.915,6.7-62.84,34.427-62.84,67.624c0,33.562,27.309,63.9,62.963,69.396c5.537,0.851,11.892,1.554,18.675,2.14
								C307.078,811.083,306.417,810.689,305.734,810.286z"/>
							<path fill="#295590" d="M311.206,769.35c7.709,13.354,4.28,29.759-7.654,36.652c-11.938,6.887-27.862,1.652-35.569-11.694
								s-4.279-29.759,7.657-36.65C287.574,750.765,303.499,755.999,311.206,769.35z"/>
						</g>
						<g>
							<path fill="#7B5437" d="M314.393,775.077c7.71,13.352,4.28,29.764-7.654,36.65c-11.935,6.893-27.862,1.657-35.568-11.693
								c-7.71-13.348-4.28-29.759,7.654-36.646C290.76,756.496,306.685,761.73,314.393,775.077z"/>
							<path fill="#AF7246" d="M309.189,785.679c4.671,8.093,2.592,18.04-4.644,22.217c-7.236,4.182-16.89,1.009-21.558-7.089
								c-4.674-8.088-2.595-18.035,4.639-22.218C294.863,774.418,304.516,777.586,309.189,785.679z"/>
						</g>
					</g>
					<g id="leg_1_">
						<path fill="#2D5EA1" d="M565.715,710.017c0.005,0,0.005,0,0.005-0.005c12.845-23.211,40.184-39.239,71.826-39.239
							c43.985,0,79.643,30.964,79.643,69.159c0,33.566-27.309,63.905-62.961,69.4c-35.657,5.49-105.215,4.914-105.215,4.914
							C531.923,801.751,551.103,735.977,565.715,710.017z"/>
						<g id="shadow_7_">
							<path fill="#295590" d="M637.546,810.286c99.833-59.055,16.834-137.939,16.805-137.969
								c35.918,6.7,62.842,34.427,62.842,67.624c0,33.562-27.308,63.9-62.959,69.396c-5.54,0.851-11.897,1.554-18.675,2.14
								C636.208,811.083,636.867,810.689,637.546,810.286z"/>
							<path fill="#295590" d="M632.104,769.35c7.71-13.351,23.633-18.585,35.567-11.692c11.941,6.892,15.369,23.299,7.661,36.65
								c-7.71,13.347-23.634,18.581-35.574,11.694C627.824,799.108,624.4,782.697,632.104,769.35z"/>
						</g>
						<g>
							<path fill="#7B5437" d="M628.911,775.102c7.709-13.352,23.634-18.591,35.568-11.693c11.935,6.893,15.364,23.298,7.659,36.65
								c-7.708,13.347-23.634,18.581-35.573,11.688C624.632,804.86,621.202,788.448,628.911,775.102z"/>
							<path fill="#AF7246" d="M634.131,785.664c4.674-8.088,14.325-11.266,21.562-7.085c7.237,4.178,9.312,14.12,4.64,22.213
								c-4.669,8.093-14.32,11.271-21.558,7.089C631.538,803.704,629.463,793.757,634.131,785.664z"/>
						</g>
					</g>
				</g>
			</g>
			<g id="arms_1_">
				<path id="arm_10_" fill="#986945" d="M265.646,594.794c-21.103,91.677-8.361,110.269,17.494,148.119
					c9.303,13.622,90.067,92.792,178.354,81.719c-10.75-85.654-65.516-205.869-65.516-205.869S298.105,453.733,265.646,594.794z"/>
				<path fill="#895D3D" d="M293.532,646.189c39.33,10.626,83.109,7.896,115.456,3.016c-7.672-18.725-13.011-30.442-13.011-30.442
					s-26.324-44.38-56.194-67.438v-0.002c-0.064-0.049-0.127-0.096-0.191-0.145c-0.132-0.104-0.271-0.207-0.405-0.31
					c-0.322-0.246-0.648-0.492-0.972-0.733c-0.053-0.037-0.104-0.079-0.158-0.118v0.002c-27.271-20.195-57.111-21.727-72.416,44.77
					c-21.1,91.682-8.359,110.273,17.496,148.124c9.31,13.617,90.07,92.792,178.351,81.714
					C315.466,771.195,288.547,699.479,293.532,646.189z"/>
			</g>
		</g>
		<g id="npm_-_wombat_-_face_2_">
			<g id="ears_2_">
				<g id="ear_6_">
					<path fill="#986945" d="M452.84,183.45l-25.444,29.581l26.301,30.472l45.053-0.629
						C498.749,242.873,481.698,206.917,452.84,183.45z"/>
					<polygon fill="#895D3D" points="433.364,219.948 427.396,213.031 452.84,183.45 454.881,224.061 					"/>
				</g>
				<g id="ear_5_">
					<path fill="#986945" d="M219.303,250.125l37.229,11.686l-6.246,39.763l-38.597,23.252
						C211.688,324.823,207.187,285.29,219.303,250.125z"/>
					<polygon fill="#895D3D" points="255.113,270.835 256.532,261.809 219.303,250.125 239.011,285.691 					"/>
				</g>
			</g>
			<path id="head_3_" fill="#986945" d="M576.257,306.624c-59.969-72.044-153.072-115.706-240.463-90.758
				c-87.387,24.949-143.403,111.182-156.31,204.031c-12.899,92.85,15.265,191.639,15.265,191.639
				c91.972,70.429,260.122,21.425,260.122,21.425s168.673-47.153,209.594-155.522C664.47,477.433,636.232,378.663,576.257,306.624z"
				/>
			<g id="nose_4_">
				<path id="nose_9_" fill="#895D3D" d="M453.569,628.341c-38.152,10.893-73.353,4.758-78.621-13.701
					c-5.27-18.453,21.388-42.244,59.542-53.136c38.15-10.89,73.351-4.757,78.619,13.698
					C518.379,593.657,491.72,617.449,453.569,628.341z"/>
				<path id="nose_5_" d="M451.724,621.872c-38.151,10.892-73.354,4.762-78.623-13.691c-5.266-18.458,21.391-42.247,59.545-53.139
					c38.15-10.892,73.355-4.76,78.619,13.696C516.534,587.194,489.88,610.979,451.724,621.872z"/>
			</g>
			<g id="face_2_">
				<g id="eyes_2_">
					<g id="eye_4_">
						<path fill="#B58463" d="M360.262,565.499c2.371,8.307-2.44,16.958-10.747,19.329c-8.3,2.372-16.96-2.436-19.329-10.742
							c-2.372-8.306,2.44-16.959,10.746-19.331C349.236,552.383,357.887,557.192,360.262,565.499z"/>
						<path d="M348.865,560.018c6.464,0,11.709,5.239,11.709,11.706c0,6.467-5.245,11.707-11.709,11.707
							c-6.464,0-11.706-5.239-11.706-11.707C337.159,565.257,342.401,560.018,348.865,560.018z"/>
						<circle fill="#FFFFFF" cx="349.044" cy="568.64" r="3.786"/>
					</g>
					<g id="eye_3_">
						<path fill="#B58463" d="M500.339,525.51c2.377,8.307,11.03,13.113,19.334,10.742c8.303-2.372,13.115-11.025,10.743-19.33
							c-2.371-8.31-11.03-13.115-19.333-10.744C502.779,508.549,497.968,517.2,500.339,525.51z"/>
						<circle cx="513.307" cy="524.777" r="11.706"/>
						<circle fill="#FFFFFF" cx="511.526" cy="522.253" r="3.786"/>
					</g>
				</g>
			</g>
			<path fill="#895D3D" d="M576.292,306.609c-39.131-46.997-92.354-81.909-148.896-93.583c0.468,0.138,5.167,1.545,12.914,5.186
				c-33.635-2.066-65.479,1.655-85.64,5.166c0.029-0.473-0.015-0.94-0.143-1.393c-1.284-4.494-10.267-5.869-20.067-3.075
				c-9.794,2.799-16.696,8.71-15.416,13.205c0.092,0.322,0.229,0.625,0.397,0.913c-16.226,6.333-41.64,17.767-67.169,34.203
				c2.456-3.39,4.036-5.176,4.26-5.421c-2.595,2.464-5.133,5-7.613,7.6l-0.008,0.005c-1.102,1.159-2.187,2.333-3.264,3.515
				c-0.376,0.414-0.753,0.829-1.125,1.242c-0.656,0.733-1.31,1.471-1.96,2.213c-0.957,1.093-1.899,2.2-2.838,3.312
				c-0.32,0.378-0.64,0.753-0.959,1.137l0,0c-31.687,38.102-52.123,87.558-59.278,139.061
				c-12.902,92.847,15.268,191.636,15.268,191.636c31.936,24.461,73.06,34.511,113.141,37.217
				c-39.917-20.283-72.382-51.704-72.382-51.704c-0.639-2.131-1.264-4.241-1.874-6.347c27.889-19.211,78.855-82.132,173.69-109.207
				c103.912-29.666,185.821,5.031,213.696,0.756c0.403,1.458,0.808,2.919,1.205,4.396c0,0-1.049,4.154-3.163,11.017
				c-40.576-1.067-63.808,27.419-63.808,27.419s-25.206,35.714-47.764,88.517c24.15-10.455,53.401-25.292,80.568-44.845
				c-0.005,0.007-0.011,0.012-0.011,0.017c32.608-23.458,62.228-53.707,76.44-91.344
				C664.494,477.421,636.262,378.653,576.292,306.609z"/>
			<g id="baseball_cap_6_">
				<g id="nub_6_">
					<path fill="#DCDCAC" d="M337.191,223.687c-9.8,2.799-18.781,1.421-20.062-3.075c-1.284-4.497,5.618-10.408,15.415-13.205
						c9.797-2.796,18.781-1.421,20.065,3.075C353.893,214.979,346.988,220.893,337.191,223.687z"/>
					<path fill="#B6B69D" d="M338.775,229.271c-9.798,2.794-18.78,1.419-20.062-3.077c-1.284-4.497,5.618-10.411,15.416-13.207
						c9.797-2.794,18.78-1.419,20.065,3.077C355.477,220.561,348.574,226.474,338.775,229.271z"/>
				</g>
				<g id="cap_6_">
					<path fill="#DCDCAC" d="M516.292,223.058c-68.647-32.425-166.251-12.565-181.445-8.229
						c-15.189,4.336-108.568,39-149.747,102.782c-41.179,63.778-16.788,178.475-3.57,195.511c0,0,103.243-99.909,201.912-128.079
						c98.67-28.169,239.099,2.175,239.099,2.175C624.773,365.772,584.936,255.487,516.292,223.058z"/>
					<path id="shadow_13_" fill="#D0D0AA" d="M181.53,513.122c-13.218-17.037-37.609-131.733,3.57-195.511
						c19.189-29.718,49.709-53.116,78.374-70.068c-36.865,32.41-89.898,62.66-47.954,219.341
						c-13.352,12.823-25.4,26.779-35.259,41.799L181.53,513.122z M622.546,387.219c2.228-21.447-37.61-131.732-106.254-164.161
						c-31.991-15.108-70.261-18.862-103.559-18.129c48.421,8.061,109.434,5.756,156.529,160.964
						c18.114,3.842,35.706,9.335,52.009,16.884l1.271,4.439L622.546,387.219L622.546,387.219z"/>
					<path fill="#C5C5A2" d="M343.97,212.657c-4.138,0.871-7.257,1.64-9.123,2.172c-1.863,0.534-4.918,1.527-8.893,2.969
						l48.059,168.337l18.016-5.145L343.97,212.657z"/>
				</g>
				<g id="lip_6_">
					<path fill="#66655D" d="M637.054,430.86l-16.506-57.825c-76.583-22.384-187.632-4.841-237.827,9.49
						c-50.191,14.331-153.763,58.061-206.985,117.499l16.51,57.824c0,0,6.438,32.381,31.534,25.217
						c25.096-7.167,76.244-83.715,183.55-114.35c107.311-30.634,191.16,7.375,216.259,0.207
						C648.684,461.76,637.054,430.86,637.054,430.86z"/>
					<path fill="#5C5B54" d="M242.946,570.743c-7.677,6.39-13.98,10.84-19.167,12.322c-25.096,7.164-31.534-25.217-31.534-25.217
						l-16.505-57.824c10.698-11.95,23.434-23.262,37.359-33.83L242.946,570.743z M600.807,468.578
						c9.889,1.373,17.597,1.826,22.781,0.345c25.096-7.163,13.471-38.063,13.471-38.063l-16.511-57.825
						c-15.393-4.499-32.185-7.382-49.593-9.005L600.807,468.578z"/>
					<path fill="#979580" d="M634.716,422.679l-16.509-57.824c-76.579-22.385-187.625-4.841-237.817,9.489
						c-50.194,14.328-153.769,58.056-206.991,117.499l16.511,57.823c0,0,6.438,32.38,31.534,25.215
						c25.095-7.163,76.244-83.711,183.552-114.345c107.308-30.634,191.156,7.37,216.256,0.204
						C646.347,453.578,634.716,422.679,634.716,422.679z"/>
					<path fill="#888775" d="M240.61,562.561c-7.677,6.391-13.976,10.843-19.167,12.324c-25.097,7.163-31.534-25.217-31.534-25.217
						l-16.506-57.825c10.701-11.949,23.435-23.262,37.359-33.83L240.61,562.561z M598.47,460.396
						c9.893,1.375,17.597,1.825,22.781,0.344c25.096-7.163,13.47-38.062,13.47-38.062l-16.509-57.824
						c-15.398-4.497-32.184-7.382-49.59-9.004L598.47,460.396z"/>
					<path fill="#D0D0AA" d="M609.263,403.989c0.127,0.442,3.229,11.138-4.197,19.496c-3.02,3.399-7.358,5.926-12.893,7.507
						c-8.83,2.519-20.304,1.422-36.184-0.098c-32.242-3.089-80.981-7.751-155.586,13.549
						c-74.61,21.299-113.534,50.991-139.293,70.635c-12.683,9.676-21.848,16.667-30.676,19.186
						c-5.54,1.582-10.557,1.727-14.918,0.432c-10.719-3.178-13.73-13.892-13.853-14.35l-12.634-44.244
						c0.733-0.676,1.487-1.34,2.234-2.01l12.998,45.521c0.03,0.113,2.962,10.501,12.781,13.411
						c3.759,1.112,8.112,0.979,12.928-0.396c8.086-2.307,17.015-9.119,29.375-18.544c25.98-19.816,65.244-49.764,140.591-71.275
						c75.344-21.508,124.5-16.805,157.028-13.693c15.477,1.482,26.654,2.551,34.742,0.243c4.816-1.377,8.58-3.559,11.187-6.491
						c6.799-7.652,3.808-18.028,3.773-18.128l-12.992-45.531c0.984,0.175,1.977,0.342,2.957,0.529L609.263,403.989L609.263,403.989z
						 M200.467,466.167l10.855,38.021c0.079,0.288,1.972,7.089,10.087,9.502c4.352,1.296,9.64,1.077,15.713-0.654
						c8.201-2.344,17.001-8.004,29.188-15.843c24.785-15.942,62.235-40.033,132.031-59.959
						c69.794-19.927,114.322-19.238,143.789-18.786c14.488,0.227,24.952,0.388,33.152-1.953c6.071-1.734,10.682-4.339,13.693-7.738
						c5.612-6.337,3.634-13.111,3.55-13.386l-10.856-38.031c-0.965-0.13-1.943-0.258-2.913-0.378l11.178,39.162
						c0.02,0.059,1.864,6.371-3.134,12.011c-2.598,2.932-6.637,5.193-11.983,6.722c-7.61,2.17-17.834,2.013-31.983,1.796
						c-29.694-0.459-74.57-1.151-144.954,18.943c-70.387,20.094-108.132,44.377-133.114,60.442
						c-11.9,7.653-20.495,13.185-28.11,15.358c-5.347,1.528-9.962,1.734-13.713,0.625c-7.21-2.142-9-8.491-9.02-8.562l-11.177-39.15
						C201.981,464.925,201.222,465.545,200.467,466.167z M211.161,457.738l9.005,31.541c0.079,0.298,2.054,7.357,10.132,9.761
						c4.042,1.206,8.879,1.019,14.375-0.551c7.669-2.189,15.979-7.252,27.475-14.257c23.388-14.254,58.735-35.79,124.067-54.439
						c65.336-18.656,106.721-19.024,134.112-19.266c13.46-0.123,23.186-0.206,30.856-2.398c5.5-1.567,9.701-3.965,12.495-7.121
						c5.599-6.307,3.548-13.344,3.457-13.632l-9.007-31.549c-0.96-0.091-1.913-0.184-2.883-0.265l9.293,32.562
						c0.026,0.064,1.933,6.671-3.036,12.265c-2.384,2.686-6.011,4.74-10.782,6.101c-7.13,2.036-16.629,2.12-29.783,2.238
						c-27.599,0.247-69.316,0.62-135.192,19.427c-65.876,18.808-101.496,40.513-125.067,54.875
						c-11.231,6.843-19.347,11.787-26.478,13.822c-4.771,1.362-8.933,1.535-12.377,0.516c-7.172-2.128-9.042-8.75-9.061-8.823
						l-9.293-32.553C212.696,456.569,211.932,457.155,211.161,457.738z"/>
				</g>
				<g>
					<g>
						<path fill="#B6B69D" d="M278.894,270.598c2.731,2.841-0.388,9.187-6.97,14.168c-6.583,4.981-14.132,6.713-16.864,3.87
							c-2.731-2.841,0.388-9.186,6.971-14.169C268.607,269.488,276.159,267.757,278.894,270.598z M415.648,231.553
							c-0.819,3.856,5.181,7.599,13.4,8.354c8.219,0.757,15.546-1.761,16.367-5.616c0.817-3.857-5.182-7.599-13.4-8.351
							C423.795,225.183,416.47,227.697,415.648,231.553z"/>
						<path fill="#231F20" d="M431.025,230.594c3.938,0.361,6.904,1.697,6.629,2.98c-0.271,1.287-3.68,2.037-7.616,1.673
							c-3.933-0.359-6.905-1.698-6.632-2.981C423.681,230.982,427.091,230.232,431.025,230.594z M265.329,277.898
							c-3.152,2.386-4.969,5.09-4.056,6.034c0.909,0.949,4.201-0.217,7.352-2.601c3.152-2.383,4.967-5.084,4.057-6.033
							C271.771,274.349,268.474,275.515,265.329,277.898z"/>
					</g>
				</g>
			</g>
		</g>
		<g id="arm_3_">
			<g>
				<g>
					<polygon fill="#D1D2D3" points="520.626,872.41 512.834,904.93 505.592,904.935 498.361,904.949 490.47,872.454 
						499.602,860.599 499.428,738.461 511.294,738.446 511.467,860.584 511.467,860.584 					"/>
					<polygon fill="#C3C3C3" points="512.834,904.93 490.47,872.454 499.602,860.599 505.533,860.589 505.381,753.559 
						511.319,753.549 511.467,860.584 520.626,872.41 					"/>
				</g>
				<path fill="#DB8027" d="M526.903,761.794c-0.004-4.408-5.077-7.97-11.329-7.965l-21.513,0.03
					c-6.248,0.005-11.314,3.591-11.312,7.998l0.03,20.756c0.01,4.409,5.083,7.975,11.335,7.965l21.513-0.029
					c6.254-0.01,11.316-3.586,11.307-7.999L526.903,761.794z"/>
				<g>
					<path fill="#F79420" d="M533.753,796.113c0,4.408-4.084,7.988-9.121,7.993l-38.349,0.056c-5.042,0.01-9.14-3.562-9.146-7.971
						l-0.01-11.177c-0.01-4.408,4.074-7.99,9.117-7.995l38.348-0.054c5.043-0.01,9.135,3.562,9.142,7.97L533.753,796.113z
						 M532.94,623.318c-0.006-4.408-4.098-7.98-9.142-7.971l-38.347,0.05c-5.042,0.011-9.126,3.591-9.121,7.999l0.197,137.704
						c0.004,4.407,4.098,7.975,9.14,7.97l38.344-0.054c5.047-0.01,9.131-3.592,9.121-7.999L532.94,623.318z"/>
					<path fill="#DB8027" d="M524.632,804.106l-8.137,0.011l-0.266-188.76l7.569-0.01c5.044-0.01,9.136,3.562,9.142,7.971
						l0.192,137.699c0.005,3.521-2.599,6.513-6.213,7.575l0.015,8.634c3.905,0.9,6.799,4.005,6.802,7.709l0.017,11.178
						C533.753,800.521,529.669,804.102,524.632,804.106z"/>
					<path fill="#DB8027" d="M493.225,761.475c-4.536,0.01-8.216-2.578-8.216-5.776l-0.177-126.924
						c-0.005-3.197,3.665-5.791,8.196-5.801c4.535-0.005,8.21,2.583,8.22,5.776l0.177,126.924
						C501.432,758.872,497.761,761.47,493.225,761.475z M524.637,755.645l-0.177-126.924c-0.01-3.199-3.686-5.786-8.217-5.776
						c-4.536,0.005-8.206,2.598-8.201,5.796l0.177,126.924c0,3.198,3.68,5.785,8.217,5.775
						C520.966,761.435,524.642,758.838,524.637,755.645z"/>
					<path fill="#C47229" d="M524.46,628.721l0.172,126.919c0.01,3.198-3.666,5.795-8.196,5.8l-0.196-138.495
						C520.77,622.935,524.45,625.521,524.46,628.721z"/>
				</g>
			</g>
			<g>
				<path id="arm_9_" fill="#986945" d="M571.82,522.01c0,0-53.042,66.005-85.256,153.756
					c90.45,33.192,194.947-30.664,208.088-42.766c36.497-33.63,9.558-101.648-5.2-113.903
					C621.654,467.686,571.82,522.01,571.82,522.01z"/>
				<path fill="#895D3D" d="M694.652,633c23.273-21.444,20.75-56.868,12.042-82.9c-30.132,33.836-121.543,126.33-220.13,125.666
					C577.015,708.958,681.512,645.102,694.652,633z"/>
			</g>
		</g>
	</g>
</g>
</svg>
