<svg xmlns="http://www.w3.org/2000/svg" xmlns:xlink="http://www.w3.org/1999/xlink" id="Layer_1" width="1080" height="1080" x="0" y="0" enable-background="new 0 0 1080 1080" version="1.1" viewBox="0 0 1080 1080" xml:space="preserve"><g id="wombat"><g id="body"><path id="body_1_" fill="#986844" d="M864.753,691.051c-54.408-113.423-165.738-202.774-296.229-202.775 c-130.484,0.001-241.814,89.353-296.226,202.771c-54.408,113.426-54.46,249.319-54.46,249.319 c118.524,80.147,350.686,86.521,350.686,86.521s232.207-6.388,350.688-86.521C919.212,940.369,919.161,804.473,864.753,691.051z"/><g id="body_shadow"><path fill="#895D3D" d="M360.157,998.104c-135.034-122.053-51.083-339.34-51.083-339.34l39.117-54.426 c0,0-13.179,4.336-25.65,7.977c-19.846,24.116-36.787,50.688-50.242,78.736c-50.691,105.675-54.199,230.836-54.441,247.443 c0,0.031-0.001,0.062-0.001,0.093c-0.003,0.207-0.005,0.394-0.007,0.562c0,0.036,0,0.071-0.001,0.104 c-0.002,0.149-0.003,0.283-0.004,0.402c0,0.062-0.001,0.111-0.001,0.167c0,0.078-0.001,0.15-0.001,0.213s0,0.104-0.001,0.15 c0,0.104,0,0.181,0,0.181C257.024,966.866,308.629,985.298,360.157,998.104C360.158,998.104,360.158,998.104,360.157,998.104z"/><path fill="#895D3D" d="M776.946,998.104c135.032-122.053,51.084-339.34,51.084-339.34l-39.117-54.428 c0,0,13.18,4.336,25.649,7.977c19.847,24.116,36.787,50.688,50.242,78.734c50.689,105.677,54.199,230.838,54.439,247.445 c0,0.031,0,0.062,0.002,0.093c0.004,0.207,0.006,0.394,0.008,0.562c0,0.036,0.002,0.071,0.002,0.104 c0.002,0.149,0.002,0.283,0.004,0.402c0,0.062,0.002,0.111,0.002,0.167c0,0.078,0,0.15,0.002,0.213c0,0.062,0,0.104,0,0.15 c0,0.104,0,0.181,0,0.181C880.081,966.866,828.477,985.298,776.946,998.104L776.946,998.104z"/></g></g><g id="npm_-_wombat_-_face"><g id="ears_3_"><g id="ear_4_"><path fill="#986844" d="M745.167,99.24l-47.396,31.208l24.612,53.115l63.261,17.109 C785.645,200.673,776.157,143.58,745.167,99.24z"/><polygon fill="#895D3D" points="703.357 142.509 697.771 130.449 745.167 99.24 731.812 156.85"/></g><g id="ear_1_"><path fill="#986844" d="M391.936,99.24l47.399,31.208l-24.614,53.115l-63.262,17.109 C351.458,200.673,360.945,143.58,391.936,99.24z"/><polygon fill="#895D3D" points="433.748 142.509 439.335 130.449 391.936 99.24 405.293 156.85"/></g></g><path id="head_2_" fill="#986844" d="M868.595,320.776C813.48,196.077,700.708,97.84,568.532,97.84 c-132.177,0-244.949,98.236-300.065,222.938c-55.113,124.699-55.165,274.106-55.165,274.106 c100.501,135.22,355.23,133.824,355.23,133.824s254.723,1.396,355.225-133.824C923.759,594.884,923.706,445.477,868.595,320.776z"/><g id="nose_6_"><ellipse id="nose_8_" cx="568.532" cy="596.883" fill="#895D3D" rx="104.483" ry="50.544"/><ellipse id="nose_7_" cx="568.532" cy="587.107" rx="104.483" ry="50.542"/></g><g id="face_4_"><g id="eyes_6_"><g id="eye_8_"><path fill="#B78563" d="M463.15,513.931c0,12.563-10.185,22.743-22.746,22.743c-12.561,0-22.746-10.18-22.746-22.743 s10.184-22.745,22.746-22.745C452.968,491.186,463.15,501.366,463.15,513.931z"/><circle cx="444.727" cy="518.085" r="17.026"/><circle cx="446.208" cy="523.132" r="5.504" fill="#FFF"/></g><g id="eye_7_"><path fill="#B78563" d="M675.023,513.931c0,12.563,10.185,22.743,22.746,22.743c12.56,0,22.746-10.18,22.746-22.743 s-10.188-22.745-22.746-22.745C685.206,491.186,675.023,501.366,675.023,513.931z"/><circle cx="693.444" cy="518.085" r="17.026"/><circle cx="691.966" cy="523.132" r="5.505" fill="#FFF"/></g></g></g><path id="shadow_1_" fill="#895D3D" d="M276.092,590.894c0,0,32.858,56.902,80.586,101.212 c-54.973-19.787-108.475-50.268-143.375-97.225c0,0,0.052-149.408,55.165-274.109c35.955-81.351,96.453-151.428,170.867-190.326 C436.062,132.507,271.071,238.132,276.092,590.894z M861.013,590.894c0,0-32.856,56.902-80.588,101.212 c54.974-19.786,108.474-50.267,143.377-97.224c0,0-0.053-149.408-55.164-274.108c-35.957-81.352-96.452-151.429-170.866-190.327 C701.04,132.507,866.034,238.132,861.013,590.894z"/></g><g><g><path fill="#986844" d="M521.136,730.059c0,0-187.915-178.049-276.983-89.846c-65.354,64.722,4.753,146.438,44.638,155.483 C385.011,817.525,480.5,770.303,521.136,730.059z"/><path d="M521.136,730.059c0,0-222.126,60.719-301.188-10.552l0,0 c9.626,38.737,44.748,70.726,68.842,76.191C385.011,817.525,480.5,770.303,521.136,730.059z" enable-background="new" opacity=".1"/></g><g><path fill="#986844" d="M848.312,795.696c39.886-9.047,109.992-90.763,44.638-155.483 c-89.068-88.203-276.982,89.846-276.982,89.846C656.604,770.303,752.093,817.525,848.312,795.696z"/><path d="M848.312,795.698c24.095-5.467,59.216-37.454,68.843-76.191l0,0 c-79.062,71.271-301.188,10.552-301.188,10.552C656.604,770.303,752.093,817.525,848.312,795.698z" enable-background="new" opacity=".1"/></g></g><radialGradient id="SVGID_1_" cx="7.199" cy="776.742" r="252.661" gradientTransform="matrix(1 0 0 -0.8 564 1218.2765)" gradientUnits="userSpaceOnUse"><stop offset="0" style="stop-color:#1b91cc"/><stop offset="1" style="stop-color:#fff;stop-opacity:0"/></radialGradient><ellipse cx="571.199" cy="596.883" fill="url(#SVGID_1_)" rx="291.549" ry="206.58"/><g id="Laptop_1_"><g id="Base_1_"><path fill="#AFAFAF" d="M568.796,777.208H302.57v7.705c0,0,0.927,8.295,9.651,8.295c8.723,0,256.575,0,256.575,0 s247.851,0,256.57,0c8.725,0,10.203-8.295,10.203-8.295v-7.705H568.796z"/><rect width="477" height="21" x="329.57" y="772.208" fill="#333"/><path d="M806.569,772.208h-477v5h-27v7.705c0,0,0.21,2.729,2.288,4.992 c0.405,0.144,0.549,0.303,1.004,0.303h525.379c0.635,0,1.457-0.231,1.985-0.501c1.795-2.217,2.343-4.794,2.343-4.794v-7.705h-29 V772.208L806.569,772.208z" enable-background="new" opacity=".1"/></g><g id="Lid_1_"><path fill="#CCC" d="M861.485,550.515c0.159-1.437-1.619-2.307-3.976-2.307H279.593c-2.355,0-4.135,0.87-3.976,2.307 l0.01-0.057c-0.018,0.129-0.025,0.188-0.01,0.32l26.078,234.579c0.16,1.436,2.025,2.851,4.167,2.851h525.379 c2.141,0,4.006-1.451,4.166-2.888l26.078-234.474c0.016-0.134,0.008-0.188-0.011-0.316L861.485,550.515z"/><g id="Logo_3_"><path id="Logo_5_" d="M500.526,655.139H641.87l-0.877,30.18h-69.826l-0.004,4.85 h-30.944l-0.056-4.85h-38.825L500.526,655.139z M509.122,680.194l15.458,0.001l-0.266-15.077h7.819l0.218,15.077h7.7 l-0.227-19.938h-31.179L509.122,680.194z M547.588,660.168l0.305,25.148h15.36l-0.011-5.02h15.585l0.082-20.131L547.588,660.168 L547.588,660.168z M563.021,665.018h8.166l-0.01,10.239h-8.134L563.021,665.018z M586.806,660.168l-0.146,19.939h15.486 l0.2-14.972h7.789l-0.248,14.972h7.738l0.291-14.909h7.799l-0.34,14.909h7.746l0.514-19.939H586.806z" enable-background="new" opacity=".1"/><path id="Logo_4_" fill="#FFF" d="M500.553,656.113h141.288l-0.875,30.177h-69.799l-0.006,4.851h-30.933l-0.056-4.851 h-38.811L500.553,656.113z M509.146,681.17h15.452l-0.266-15.076h7.815l0.219,15.076h7.699l-0.228-19.938h-31.168 L509.146,681.17z M547.597,661.143l0.302,25.147h15.357l-0.013-5.019h15.578l0.084-20.131L547.597,661.143L547.597,661.143z M563.023,665.993h8.164l-0.012,10.237h-8.131L563.023,665.993z M586.798,661.143l-0.145,19.939h15.479l0.199-14.97h7.787 l-0.246,14.97h7.732l0.291-14.909h7.797l-0.341,14.909h7.744l0.515-19.939H586.798z"/></g><path d="M305.862,788.208h525.379c2.141,0,4.006-1.451,4.166-2.888l25.953-232.767 c-0.445-1.036-1.961-1.348-3.851-1.348H279.593c-1.889,0-3.405,0.168-3.851,1.205l25.953,233.199 C301.856,787.048,303.721,788.208,305.862,788.208z" enable-background="new" opacity=".1"/></g><path d="M568.796,793.208c0,0,178.326,0,237.773,0c3.44,0,6.479,0,9.063,0 c-67.27-27.835-153.315-44.544-247.104-44.544c-93.789,0-179.837,16.709-247.108,44.544c2.338,0,5.068,0,8.148,0 C387.51,793.208,568.796,793.208,568.796,793.208z" enable-background="new" opacity=".1"/></g><path id="Belly" fill="#B78563" d="M568.53,758.664c-149.287,0-278.975,42.325-344.516,104.489 c-6.136,45.532-6.15,77.216-6.15,77.216c118.524,80.147,350.686,86.521,350.686,86.521s232.207-6.388,350.689-86.521 c0,0-0.019-31.661-6.146-77.168C847.569,801.012,717.854,758.664,568.53,758.664z"/><g id="legs"><g id="leg"><path fill="#986844" d="M422.869,852.123c-0.001-0.002-0.002-0.002-0.003-0.004c-20.121-36.355-62.928-61.458-112.486-61.458 c-68.887,0-124.731,48.496-124.731,108.315c0,52.562,42.761,100.077,98.604,108.678c55.843,8.6,164.779,7.699,164.779,7.699 C475.786,995.785,445.751,892.775,422.869,852.123z"/><g id="shadow_3_"><path fill="#895D3D" d="M310.378,1009.154c-156.346-92.484-26.365-216.027-26.321-216.068 c-56.246,10.493-98.41,53.914-98.41,105.896c0,52.562,42.761,100.076,98.604,108.677c8.67,1.335,18.621,2.44,29.245,3.356 C312.476,1010.4,311.441,1009.783,310.378,1009.154z"/><ellipse cx="285.091" cy="964.583" fill="#895D3D" rx="39.086" ry="43.715" transform="matrix(0.866 -0.5 0.5 0.866 -444.1042 271.7832)"/></g><g><ellipse cx="290.099" cy="973.576" fill="#7A5336" rx="39.086" ry="43.714" transform="matrix(0.866 -0.5 0.5 0.866 -447.9299 275.4923)"/><ellipse cx="295.217" cy="982.46" fill="#AF7146" rx="23.693" ry="26.499" transform="matrix(0.866 -0.5 0.5 0.866 -451.693 279.2488)"/></g></g><g id="leg_2_"><path fill="#986844" d="M717.521,852.123c0.002-0.002,0.002-0.002,0.005-0.004c20.12-36.355,62.93-61.458,112.483-61.458 c68.889,0,124.73,48.496,124.73,108.315c0,52.562-42.764,100.077-98.605,108.678c-55.84,8.6-164.776,7.699-164.776,7.699 C664.604,995.785,694.638,892.775,717.521,852.123z"/><g id="shadow_2_"><path fill="#895D3D" d="M830.011,1009.154c156.349-92.484,26.365-216.027,26.32-216.068 c56.246,10.493,98.41,53.914,98.41,105.896c0,52.562-42.763,100.076-98.604,108.677c-8.67,1.335-18.621,2.44-29.244,3.356 C827.913,1010.4,828.946,1009.783,830.011,1009.154z"/><ellipse cx="855.343" cy="964.593" fill="#895D3D" rx="39.087" ry="43.714" transform="matrix(-0.866 -0.5 0.5 -0.866 1113.7795 2227.6296)"/></g><g><ellipse cx="850.347" cy="973.597" fill="#7A5336" rx="39.087" ry="43.715" transform="matrix(-0.866 -0.5 0.5 -0.866 1099.9547 2241.9331)"/><ellipse cx="845.228" cy="982.475" fill="#AF7146" rx="23.691" ry="26.497" transform="matrix(-0.866 -0.5 0.5 -0.866 1085.981 2255.9368)"/></g></g></g></g><g><g><path fill="#CCC" d="M954.5,1028.606c0,4.799-2.754,8.894-7.632,8.894H790.78c-4.878,0-10.28-4.095-10.28-8.894v-17.376 c0-4.799,5.402-8.73,10.28-8.73h156.088c4.878,0,7.632,3.932,7.632,8.73V1028.606z"/><path d="M946.868,1002.5H896.5v35h50.368c4.878,0,7.632-4.095,7.632-8.894v-17.376 C954.5,1006.432,951.746,1002.5,946.868,1002.5z" opacity=".1"/></g><g id="Handle"><path fill="#DDD" d="M959.09,997.307c-8.604,0-14.637-1.121-15.236-1.236l4.392-22.746c0.227,0.041,26.443,4.729,42.594-8.692 c9.033-7.509,13.614-19.918,13.614-36.889c0-23.779-5.108-52.127-29.444-52.127c-14.035,0-19.597,6.339-19.644,6.403 l-18.632-13.771c1.197-1.617,12.425-15.801,38.275-15.801c15.819,0,52.612,7.338,52.612,75.295 c0,24.267-7.443,42.711-22.119,54.825C990.702,994.785,972.002,997.305,959.09,997.307z"/><path d="M959.277,982.383c10.526,0,25.459-1.991,36.812-11.425c10.999-9.144,16.576-23.685,16.576-43.21 c0-15.684-2.106-28.545-6.263-38.224c-7.848-18.281-21.403-22.12-31.394-22.12c-7.126,0-13.442,1.366-18.772,4.062 c-0.267,0.134-0.351,0.271-0.604,0.408l-1.132-0.967v10.211l1.041,0.901c0.047-0.064,5.52-6.403,19.557-6.403 c24.336,0,29.398,28.348,29.398,52.127c0,16.971-4.426,29.38-13.459,36.889c-11.456,9.521-28.537,9.929-36.537,9.347v12.16 l0.563-3.851C956.408,982.357,957.705,982.383,959.277,982.383z" opacity=".1"/></g><g><path fill="#DDD" d="M959.5,1022.376c0,5.039-3.818,9.124-8.528,9.124H783.028c-4.71,0-8.528-4.085-8.528-9.124V843.624 c0-5.039,3.818-9.124,8.528-9.124h167.943c4.71,0,8.528,4.085,8.528,9.124V1022.376z"/><path id="Rectangle_1" fill="#CD3632" d="M805.707,915.267h123.187v41.391h-61.593v6.652h-27.348v-6.652h-34.246V915.267z M812.681,949.635h13.608v-20.68h6.842v20.68h6.778v-27.349h-27.229V949.635z M846.688,922.165l0.082,34.492h13.551v-6.882h13.718 v-27.61H846.688z M860.156,928.817h7.145v14.043h-7.145V928.817z M880.934,922.165v27.347h13.633V928.98h6.815v20.531h6.81 v-20.448h6.823v20.448h6.818v-27.347H880.934z"/><path d="M951.359,834.5H900.5v197h50.859c4.797,0,8.141-3.889,8.141-8.686v-180.09 C959.5,837.927,956.156,834.5,951.359,834.5z" opacity=".1"/></g></g></svg>