<?xml version="1.0" encoding="utf-8"?>
<!-- Generator: Adobe Illustrator 16.0.4, SVG Export Plug-In . SVG Version: 6.00 Build 0)  -->
<!DOCTYPE svg PUBLIC "-//W3C//DTD SVG 1.1//EN" "http://www.w3.org/Graphics/SVG/1.1/DTD/svg11.dtd">
<svg version="1.1" id="Layer_1" xmlns="http://www.w3.org/2000/svg" xmlns:xlink="http://www.w3.org/1999/xlink" x="0px" y="0px"
	 width="1080px" height="1082.838px" viewBox="0 0 1080 1082.838" enable-background="new 0 0 1080 1082.838" xml:space="preserve">
<g id="Layer_1_1_">
	<g id="npm-wombat">
		<g>
			<g id="body__x2B__legs">
				<g id="body_2_">
					<g id="body">
						<path id="body_1_" fill="#986844" d="M835.561,688.896C781.152,575.474,669.822,486.121,539.333,486.12
							c-130.485,0.001-241.816,89.353-296.226,202.771c-54.408,113.428-54.46,249.319-54.46,249.319
							c118.524,80.148,350.686,86.521,350.686,86.521s232.206-6.389,350.687-86.521C890.02,938.215,889.969,802.318,835.561,688.896
							z"/>
						<g id="body_shadow">
							<path fill="#895D3D" d="M330.966,995.948c-135.034-122.052-51.083-339.339-51.083-339.339L319,602.185
								c0,0-13.179,4.335-25.65,7.978c-19.846,24.117-36.787,50.688-50.242,78.736c-50.691,105.676-54.199,230.837-54.441,247.442
								c0,0.031-0.001,0.063-0.001,0.093c-0.003,0.207-0.005,0.395-0.007,0.562c0,0.037,0,0.072-0.001,0.104
								c-0.002,0.149-0.003,0.283-0.004,0.402c0,0.062-0.001,0.112-0.001,0.167c0,0.078-0.001,0.151-0.001,0.213
								c0,0.063,0,0.105-0.001,0.15c0,0.104,0,0.181,0,0.181C227.832,964.712,279.437,983.144,330.966,995.948
								C330.967,995.948,330.967,995.948,330.966,995.948z"/>
							<path fill="#895D3D" d="M747.754,995.948c135.034-122.052,51.084-339.339,51.084-339.339l-39.117-54.43
								c0,0,13.184,4.336,25.65,7.978c19.846,24.117,36.787,50.688,50.242,78.733c50.688,105.679,54.199,230.84,54.438,247.445
								c0,0.031,0.001,0.063,0.002,0.093c0.006,0.207,0.008,0.395,0.01,0.562c0,0.037,0.003,0.072,0.003,0.104
								c0.002,0.149,0.003,0.283,0.004,0.402c0.001,0.062,0.002,0.112,0.002,0.167c0,0.078,0.001,0.151,0.002,0.213
								c0,0.063,0,0.105,0,0.15c0.001,0.104,0.001,0.181,0.001,0.181C850.889,964.712,799.284,983.144,747.754,995.948
								L747.754,995.948z"/>
						</g>
					</g>
					<g id="belly">
						<path fill="#B78563" d="M539.312,756.51c-149.29,0-278.978,42.325-344.519,104.489c-6.136,45.533-6.15,77.216-6.15,77.216
							c118.524,80.148,350.686,86.521,350.686,86.521s232.206-6.39,350.688-86.521c0,0-0.017-31.661-6.146-77.168
							C818.352,798.857,688.635,756.51,539.312,756.51z"/>
						<g id="belly_shadow">
							<path fill="#A57859" d="M330.859,995.922c0,0-71.103-54.922-76.443-177.001c0,0-43.336,23.688-59.626,42.132
								c-6.128,45.504-6.143,77.162-6.143,77.162c39.156,26.479,90.715,44.902,142.209,57.707
								C330.857,995.922,330.858,995.922,330.859,995.922z"/>
							<path fill="#A57859" d="M747.809,995.922c0,0,71.104-54.922,76.442-177.001c0,0,43.336,23.688,59.626,42.132
								c6.129,45.504,6.143,77.162,6.143,77.162c-39.151,26.479-90.715,44.902-142.209,57.707H747.809z"/>
						</g>
					</g>
				</g>
				<g id="legs">
					<g id="leg">
						<path fill="#986844" d="M393.117,849.969c-0.001-0.002-0.002-0.002-0.003-0.004c-20.121-36.354-62.928-61.458-112.486-61.458
							c-68.887,0-124.731,48.496-124.731,108.316c0,52.562,42.761,100.077,98.604,108.677s164.779,7.7,164.779,7.7
							C446.034,993.631,416,890.621,393.117,849.969z"/>
						<g id="shadow_3_">
							<path fill="#895D3D" d="M280.627,1007c-156.346-92.484-26.365-216.027-26.321-216.068
								c-56.246,10.493-98.41,53.914-98.41,105.896c0,52.562,42.761,100.077,98.604,108.677c8.67,1.335,18.621,2.441,29.245,3.357
								C282.724,1008.246,281.691,1007.629,280.627,1007z"/>
							
								<ellipse transform="matrix(-0.5 -0.866 0.866 -0.5 -450.4848 1664.7476)" fill="#895D3D" cx="255.323" cy="962.416" rx="43.713" ry="39.085"/>
						</g>
						<g>
							
								<ellipse transform="matrix(-0.5 -0.866 0.866 -0.5 -450.7578 1682.5581)" fill="#7A5336" cx="260.329" cy="971.4" rx="43.714" ry="39.085"/>
							
								<ellipse transform="matrix(-0.5 -0.866 0.866 -0.5 -450.7552 1700.326)" fill="#AF7146" cx="265.458" cy="980.283" rx="26.499" ry="23.692"/>
						</g>
					</g>
					<g id="leg_2_">
						<path fill="#986844" d="M687.771,849.969c0.002-0.002,0.002-0.002,0.004-0.004c20.121-36.354,62.928-61.458,112.481-61.458
							c68.892,0,124.73,48.496,124.73,108.316c0,52.562-42.767,100.077-98.604,108.677s-164.775,7.7-164.775,7.7
							C634.854,993.631,664.888,890.621,687.771,849.969z"/>
						<g id="shadow_2_">
							<path fill="#895D3D" d="M800.261,1007c156.347-92.484,26.364-216.027,26.32-216.068
								c56.246,10.493,98.41,53.914,98.41,105.896c0,52.562-42.763,100.077-98.604,108.677c-8.67,1.335-18.621,2.441-29.244,3.357
								C798.163,1008.246,799.196,1007.629,800.261,1007z"/>
							
								<ellipse transform="matrix(-0.5 0.866 -0.866 -0.5 2071.9292 728.7174)" fill="#895D3D" cx="825.605" cy="962.464" rx="43.715" ry="39.086"/>
						</g>
						<g>
							
								<ellipse transform="matrix(-0.5 0.866 -0.866 -0.5 2072.2214 746.5534)" fill="#7A5336" cx="820.601" cy="971.471" rx="43.715" ry="39.086"/>
							
								<ellipse transform="matrix(-0.5 0.866 -0.866 -0.5 2072.1699 764.2958)" fill="#AF7146" cx="815.455" cy="980.324" rx="26.499" ry="23.693"/>
						</g>
					</g>
				</g>
			</g>
			<g id="arms">
				<g id="arm_2_">
					<path id="shaodw" fill="#895D3D" d="M238.57,698.723c-0.98,2.19-1.95,4.39-2.894,6.587c-0.071,0.166-0.139,0.333-0.209,0.499
						c-26.921,92.87-11.07,123.695,16.792,177.938c7.083,13.788,64.561,85.475,128.542,129.271
						c22.635,0.313,38.438,0.188,38.479,0.188c38.424,5.729,71.901,8.671,93.679,10.142c-5.9-133.562-61.153-310.518-61.153-310.518
						s-58.333-134.018-120.074-142.88c-2.273,2.051-4.521,4.132-6.743,6.237c-0.074,0.068-0.147,0.144-0.221,0.214
						c-4.385,4.166-8.671,8.44-12.854,12.822c-0.137,0.146-0.273,0.287-0.41,0.436c-4.13,4.34-8.159,8.781-12.083,13.313
						c-0.139,0.16-0.278,0.319-0.417,0.48c-1.948,2.26-3.872,4.542-5.768,6.849c-0.081,0.102-0.16,0.196-0.241,0.295
						c-1.86,2.271-3.695,4.562-5.504,6.867c-0.084,0.107-0.169,0.213-0.253,0.32c-1.797,2.3-3.565,4.623-5.311,6.964
						c-0.217,0.291-0.432,0.583-0.647,0.875c-3.438,4.638-6.771,9.352-9.996,14.137c-0.265,0.396-0.529,0.785-0.792,1.183
						c-1.579,2.355-3.136,4.729-4.662,7.125c-0.101,0.154-0.199,0.314-0.3,0.478c-1.431,2.252-2.835,4.521-4.219,6.799
						c-0.256,0.42-0.513,0.84-0.767,1.263c-1.419,2.355-2.814,4.729-4.182,7.111c-0.243,0.425-0.482,0.854-0.724,1.276
						c-1.245,2.188-2.47,4.391-3.671,6.603c-0.181,0.334-0.367,0.665-0.547,0.999c-1.294,2.398-2.557,4.812-3.798,7.234
						c-0.277,0.542-0.552,1.084-0.827,1.627c-1.251,2.471-2.486,4.949-3.683,7.444c-1.298,2.705-2.562,5.426-3.797,8.15
						C239.059,697.606,238.819,698.166,238.57,698.723z"/>
					<path id="arm_1_" fill="#986844" d="M471.803,712.824c0,0,61.663,197.479,61.663,332.669
						c-139.34,0-249.399-138.771-261.206-161.751c-32.797-63.85-48.968-95.227,1.694-233.572
						C351.899,437.312,471.803,712.824,471.803,712.824z"/>
				</g>
				<g id="arm_5_">
					<path id="shaodw_1_" fill="#895D3D" d="M839.896,698.723c0.979,2.19,1.945,4.39,2.894,6.587
						c0.071,0.166,0.139,0.333,0.21,0.499c26.92,92.87,11.069,123.695-16.793,177.938c-7.084,13.788-64.561,85.475-128.542,129.271
						c-22.635,0.313-38.438,0.188-38.476,0.188c-38.429,5.729-71.905,8.671-93.684,10.142
						c5.9-133.562,61.153-310.518,61.153-310.518s58.332-134.018,120.073-142.88c2.271,2.051,4.521,4.132,6.738,6.237
						c0.074,0.068,0.147,0.144,0.226,0.214c4.386,4.166,8.672,8.44,12.854,12.822c0.142,0.146,0.273,0.287,0.41,0.436
						c4.13,4.34,8.159,8.781,12.083,13.313c0.143,0.16,0.278,0.319,0.417,0.48c1.948,2.26,3.872,4.542,5.771,6.849
						c0.08,0.102,0.157,0.196,0.237,0.295c1.86,2.271,3.695,4.562,5.506,6.867c0.084,0.107,0.171,0.213,0.255,0.32
						c1.799,2.3,3.562,4.623,5.312,6.964c0.218,0.291,0.434,0.583,0.647,0.875c3.438,4.638,6.771,9.352,9.995,14.137
						c0.267,0.396,0.526,0.785,0.791,1.183c1.578,2.355,3.14,4.729,4.66,7.125c0.104,0.154,0.199,0.314,0.304,0.478
						c1.433,2.252,2.834,4.521,4.221,6.799c0.256,0.42,0.514,0.84,0.768,1.263c1.419,2.355,2.813,4.729,4.186,7.111
						c0.24,0.425,0.479,0.854,0.726,1.276c1.244,2.188,2.469,4.391,3.671,6.603c0.185,0.334,0.366,0.665,0.548,0.999
						c1.293,2.398,2.561,4.812,3.798,7.234c0.276,0.542,0.557,1.084,0.827,1.627c1.25,2.471,2.484,4.949,3.687,7.444
						c1.298,2.705,2.561,5.426,3.797,8.15C839.407,697.606,839.646,698.166,839.896,698.723z"/>
					<path id="arm_6_" fill="#986844" d="M606.662,712.824c0,0-61.662,197.479-61.662,332.669
						c139.341,0,249.398-138.771,261.206-161.751c32.797-63.85,48.968-95.227-1.693-233.572
						C726.567,437.312,606.662,712.824,606.662,712.824z"/>
				</g>
			</g>
			<path id="head_shadow" fill="#7A5336" d="M532.84,523.432c-115.1,0-215.95,52.197-272.002,130.438
				c100.513,82.639,276.051,81.684,276.051,81.684s169.624,0.925,270.864-77.543C752.324,577.475,649.959,523.432,532.84,523.432z"
				/>
		</g>
		<g id="npm_-_wombat_-_face">
			<g id="ears_3_">
				<g id="ear_4_">
					<path fill="#986844" d="M729.506,40.764l-51.035,33.604l26.504,57.192l68.115,18.423
						C773.09,149.983,762.875,88.508,729.506,40.764z"/>
					<polygon fill="#895D3D" points="684.488,87.354 678.471,74.368 729.506,40.764 715.125,102.796 					"/>
				</g>
				<g id="ear_1_">
					<path fill="#986844" d="M349.16,40.764l51.038,33.604l-26.504,57.192l-68.118,18.423
						C305.575,149.983,315.79,88.508,349.16,40.764z"/>
					<polygon fill="#895D3D" points="394.181,87.354 400.197,74.368 349.16,40.764 363.543,102.796 					"/>
				</g>
			</g>
			<path id="head_1_" fill="#986844" d="M862.408,279.306C803.064,145.034,681.635,39.257,539.312,39.256
				C396.989,39.257,275.56,145.033,216.21,279.306c-59.344,134.273-59.4,295.15-59.4,295.15
				c108.216,145.6,382.5,144.097,382.5,144.097s274.276,1.503,382.493-144.097C921.809,574.456,921.752,413.579,862.408,279.306z"/>
			<g id="nose_6_">
				<ellipse id="nose_8_" fill="#895D3D" cx="539.312" cy="656.609" rx="112.506" ry="54.424"/>
				<ellipse id="nose_7_" cx="539.312" cy="646.082" rx="112.506" ry="54.422"/>
			</g>
			<g id="face_4_">
				<g id="eyes_6_">
					<g id="eye_8_">
						<path fill="#B78563" d="M425.841,576.288c0,13.527-10.965,24.489-24.491,24.489c-13.522,0-24.493-10.962-24.493-24.489
							c0-13.529,10.966-24.491,24.493-24.491C414.877,551.797,425.841,562.759,425.841,576.288z"/>
						<circle cx="406.004" cy="580.762" r="18.333"/>
						<circle fill="#FFFFFF" cx="407.599" cy="576.196" r="5.926"/>
					</g>
					<g id="eye_7_">
						<path fill="#B78563" d="M653.979,576.288c0,13.527,10.97,24.489,24.492,24.489c13.523,0,24.492-10.962,24.492-24.489
							c0-13.529-10.969-24.491-24.492-24.491C664.943,551.797,653.979,562.759,653.979,576.288z"/>
						<circle cx="673.814" cy="580.762" r="18.333"/>
						<circle fill="#FFFFFF" cx="672.221" cy="576.196" r="5.927"/>
					</g>
				</g>
			</g>
			<path id="shadow_1_" fill="#895D3D" d="M224.425,570.159c0,0,35.38,61.271,86.772,108.979
				c-59.193-21.307-116.802-54.126-154.382-104.688c0,0,0.056-160.877,59.4-295.15c38.715-87.593,103.858-163.05,183.983-204.934
				C396.675,76.585,219.016,190.318,224.425,570.159z M854.244,570.159c0,0-35.379,61.271-86.773,108.979
				c59.193-21.306,116.801-54.125,154.383-104.687c0,0-0.057-160.877-59.396-295.15c-38.72-87.594-103.86-163.051-183.985-204.935
				C681.992,76.585,859.652,190.318,854.244,570.159z"/>
		</g>
	</g>
	<g id="hat_3_">
		<path fill="#895D3D" d="M862.408,279.306C803.064,145.034,681.635,39.257,539.312,39.256
			C396.989,39.257,275.56,145.033,216.21,279.306c-36.587,82.783-50.638,175.676-56.035,234.748
			c30.249,18.764,66.69,26.314,93.531,29.298c31.094,3.456,62.164,5.066,97.778,5.066c28.479,0,56.418-1.012,85.999-2.082
			c32.216-1.166,65.526-2.372,102.517-2.372c36.984,0,70.298,1.206,102.516,2.372c29.58,1.07,57.521,2.082,85.997,2.082
			c35.613,0,66.686-1.61,97.776-5.066c26.457-2.938,62.238-10.324,92.226-28.503C913.172,455.818,899.16,362.462,862.408,279.306z"
			/>
		<g id="construction_helmet_3_">
			<g id="lid_3_">
				<path fill="#DBB309" d="M953.676,436.397c-3.213-15.851-10.435-28.396-10.435-28.396L540,407.275l-403.242,0.729
					c0,0-7.222,12.546-10.436,28.396h-1.513v15.104h0.021c0.863,22.268,33.181,70.224,130.085,80.994
					c98.244,10.921,176.528,0.546,285.084,0.546s186.839,10.375,285.083-0.546c96.904-10.771,129.224-58.729,130.085-80.994h0.021
					V436.4L953.676,436.397L953.676,436.397z"/>
				<path fill="#FFD217" d="M943.241,393.807L540,393.079l-403.242,0.729c0,0-11.949,20.749-11.949,42.593
					c0,21.841,31.863,70.981,130.106,81.901c98.244,10.921,176.528,0.546,285.084,0.546s186.839,10.375,285.083-0.546
					c98.244-10.92,130.105-60.062,130.105-81.901C955.188,414.557,943.241,393.807,943.241,393.807z"/>
			</g>
			<path id="helmet_1_" fill="#FFD217" d="M539.21,37.756c-213.706,0-386.949,136.167-386.949,304.139v77.576
				c0,22.617,173.244,40.952,386.949,40.952s386.948-18.335,386.948-40.952v-77.576C926.158,173.924,752.914,37.756,539.21,37.756z"
				/>
			<path id="shadow_9_" fill="#EDC211" d="M197.4,320.054c0-102.088,64-192.422,162.178-247.585
				c-123.242,50.867-207.317,152.422-207.317,269.426v77.576c0,6.941,16.341,13.479,45.139,19.207V320.054z"/>
			<path id="shadow_4_" fill="#EDC211" d="M881.02,320.054c0-102.088-64-192.422-162.178-247.585
				c123.242,50.867,207.316,152.422,207.316,269.426v77.576c0,6.941-16.34,13.479-45.139,19.207V320.054L881.02,320.054z"/>
			<g id="top_3_">
				<g>
					<path fill="#DBB309" d="M555.43,37.994C617.227,39.8,675.32,52.98,726.408,74.973c15.81,32.518,25.713,93.021,30.18,184.159
						c4.146,84.58,3.205,152.136,1.659,194.217c-58.604,4.224-128.734,6.782-204.356,7.051L555.43,37.994z"/>
					<path fill="#FFD217" d="M566.03,43.802c0,0,31.015,0.136,63.37,1.974c27.722,1.573,56.427,4.396,67.451,9.453
						c5.059,2.32,9.879,6.752,14.396,13.567c16.832,25.381,29.491,83.937,34.723,190.687c4.284,87.342,3.044,156.501,1.621,194.604
						c-53.556,3.591-116.013,5.827-183.084,6.255L566.03,43.802z"/>
				</g>
				<g>
					<path fill="#DBB309" d="M522.989,37.994C461.192,39.8,403.101,52.98,352.012,74.973
						c-15.809,32.518-25.712,93.021-30.18,184.159c-4.146,84.58-3.204,152.136-1.658,194.217
						c58.605,4.224,128.732,6.782,204.357,7.051L522.989,37.994z"/>
					<path fill="#FFD217" d="M512.389,43.802c0,0-31.014,0.136-63.369,1.974c-27.721,1.573-56.427,4.396-67.453,9.453
						c-5.059,2.32-9.878,6.752-14.397,13.567c-16.832,25.381-29.492,83.937-34.725,190.687
						c-4.281,87.342-3.04,156.501-1.618,194.604c53.556,3.591,116.013,5.827,183.083,6.255L512.389,43.802z"/>
				</g>
				<g>
					<path fill="#DBB309" d="M566.03,43.802c0,0,31.015,0.136,63.37,1.974c27.722,1.573,56.427,4.396,67.451,9.453
						c1.549,0.709,3.07,1.644,4.572,2.756c0.104,0.222,0.212,0.432,0.318,0.655c15.288,32.407,25.253,93.983,29.617,183.019
						c5.119,104.478,2.337,183.367,0.835,213.403c-49.995,3.018-106.938,4.893-167.688,5.278L566.03,43.802z"/>
					<path fill="#DBB309" d="M512.389,43.802c0,0-31.014,0.136-63.369,1.974c-27.721,1.573-56.427,4.396-67.453,9.453
						c-1.548,0.709-3.071,1.644-4.572,2.756c-0.105,0.222-0.214,0.432-0.32,0.655c-15.288,32.407-25.253,93.983-29.618,183.019
						c-5.121,104.478-2.337,183.367-0.835,213.403c49.995,3.018,106.937,4.893,167.688,5.278L512.389,43.802z"/>
					<path fill="#FFD217" d="M720.75,242.011c-4.61-94.067-14.988-150.709-28.908-180.21c-6.116-12.967-12.918-20.698-20.215-24.044
						C647.73,26.797,540.806,26.33,540.806,26.33h-3.189c0,0-106.925,0.467-130.822,11.427
						c-7.296,3.347-14.097,11.078-20.215,24.044c-13.917,29.5-24.295,86.143-28.906,180.21
						c-5.141,104.863-2.32,183.519-0.786,213.679c53.948,3.021,115.444,4.733,180.73,4.733v0.316h3.189v-0.316
						c65.286,0,126.782-1.714,180.729-4.733C723.07,425.527,725.891,346.874,720.75,242.011z"/>
				</g>
			</g>
			<g id="edges_3_">
				<g>
					<path fill="#FFD217" d="M156.191,421.655c-11.544,0-19.914,0-19.914,0s0-68.254,0-78.628s19.914-15.289,19.914-15.289V421.655z
						"/>
					<path fill="#DBB309" d="M156.191,327.738c0,0-3.054,0.756-6.768,2.295c-0.256,3.94-0.422,7.895-0.422,11.859v77.576
						c0,0.703,0.103,1.435,0.361,2.187c2.106,0,4.39,0,6.829,0V327.738z"/>
				</g>
				<g>
					<path fill="#FFD217" d="M922.229,421.655c11.545,0,19.914,0,19.914,0s0-68.254,0-78.628s-19.914-15.289-19.914-15.289V421.655z
						"/>
					<path fill="#DBB309" d="M922.229,327.738c0,0,3.057,0.756,6.769,2.295c0.256,3.94,0.426,7.895,0.426,11.859v77.576
						c0,0.703-0.104,1.435-0.36,2.187c-2.106,0-4.395,0-6.828,0v-93.917H922.229z"/>
				</g>
			</g>
			<path id="rim_3_" fill="#DBB309" d="M539.209,466.199c-105.229,0-204.2-4.341-278.686-12.227
				c-36.452-3.855-65.148-8.367-85.292-13.407c-24.277-6.075-35.584-12.878-35.584-21.411c0-3.019,2.972-5.46,6.638-5.46
				s6.638,2.442,6.638,5.46c0,0.125,4.697,12.92,109.294,23.986c73.94,7.826,172.312,12.138,276.991,12.138
				c104.682,0,203.053-4.312,276.992-12.138c104.597-11.066,109.295-23.862,109.295-23.986c0-3.019,2.971-5.46,6.638-5.46
				c3.666,0,6.639,2.442,6.639,5.46c0,8.53-11.308,15.336-35.584,21.411c-20.145,5.04-48.841,9.552-85.291,13.407
				C743.411,461.858,644.438,466.199,539.209,466.199z"/>
		</g>
		<path id="logo_3_" fill="#DBB309" d="M679.615,421.565H406.611v-91.729h136.502v-14.742h60.604v14.742h75.896L679.615,421.565
			L679.615,421.565z M664.16,345.401h-30.156v45.829h-15.162v-45.829H603.82v60.605h60.343L664.16,345.401L664.16,345.401z
			 M588.795,406.277l-0.182-76.441h-30.03v15.251h-30.401v61.189L588.795,406.277L588.795,406.277z M558.947,391.536h-15.835
			v-31.123h15.835V391.536z M512.9,406.277V345.67h-30.211v45.502h-15.106V345.67h-15.091v45.319H437.37V345.67h-15.109v60.607
			H512.9L512.9,406.277z"/>
	</g>
</g>
</svg>
