<svg xmlns="http://www.w3.org/2000/svg" xmlns:xlink="http://www.w3.org/1999/xlink" id="Layer_1" width="847.619" height="739.217" x="0" y="0" enable-background="new 0 0 847.619 739.217" version="1.1" viewBox="0 0 847.619 739.217" xml:space="preserve"><g><path fill="#986844" d="M530.891,529.629c-30.178-62.909-91.928-112.471-164.305-112.471c-72.375,0-134.125,49.562-164.305,112.469 c-30.177,62.912-30.206,138.287-30.206,138.287c65.74,44.455,194.511,47.99,194.511,47.99s128.795-3.543,194.512-47.99 C561.098,667.916,561.068,592.539,530.891,529.629"/><path fill="#895D3D" d="M251.014,699.938c-74.897-67.697-28.334-188.217-28.334-188.217l21.697-30.188 c0,0-7.311,2.404-14.228,4.424c-11.008,13.377-20.403,28.113-27.867,43.672c-28.116,58.613-30.062,128.035-30.196,137.248v0.052 c-0.002,0.114-0.003,0.217-0.004,0.312v0.06c-0.002,0.082-0.002,0.155-0.003,0.223c0,0.035-0.001,0.062-0.001,0.092v0.119 c0,0.035,0,0.059-0.001,0.084v0.1C193.81,682.613,222.433,692.836,251.014,699.938"/><path fill="#895D3D" d="M482.188,699.938c74.897-67.697,28.334-188.217,28.334-188.217l-21.695-30.188 c0,0,7.311,2.404,14.227,4.422c11.008,13.377,20.404,28.115,27.867,43.672c28.115,58.615,30.062,128.037,30.195,137.248 c0,0.019,0.001,0.035,0.002,0.052c0.002,0.114,0.003,0.219,0.004,0.312c0,0.021,0.001,0.041,0.001,0.059 c0.001,0.085,0.002,0.158,0.002,0.224c0.001,0.035,0.001,0.062,0.001,0.094c0,0.043,0.001,0.084,0.002,0.117v0.084v0.1 C539.393,682.613,510.77,692.836,482.188,699.938"/><path fill="#B78563" d="M366.574,567.131c-82.803,0-154.734,23.477-191.088,57.956c-3.403,25.255-3.411,42.828-3.411,42.828 c65.74,44.455,194.511,47.988,194.511,47.988s128.795-3.542,194.512-47.987c0,0-0.009-17.561-3.408-42.803 C521.346,590.619,449.397,567.131,366.574,567.131"/><path fill="#A57859" d="M250.954,699.924c0,0-39.438-30.464-42.399-98.177c0,0-24.037,13.14-33.072,23.369 c-3.398,25.238-3.407,42.799-3.407,42.799C193.793,682.604,222.391,692.82,250.954,699.924 C250.953,699.924,250.953,699.924,250.954,699.924"/><path fill="#A57859" d="M482.219,699.924c0,0,39.438-30.464,42.399-98.177c0,0,24.036,13.14,33.071,23.369 c3.399,25.238,3.407,42.799,3.407,42.799C539.38,682.604,510.781,692.82,482.219,699.924"/><path fill="#986844" d="M285.486,618.969c0,0-0.001,0-0.002-0.002c-11.16-20.164-34.903-34.089-62.391-34.089 c-38.209,0-69.184,26.898-69.184,60.078c0,29.154,23.718,55.511,54.691,60.279c30.973,4.769,91.396,4.271,91.396,4.271 C314.837,698.652,298.179,641.518,285.486,618.969"/><path fill="#895D3D" d="M223.093,706.068c-86.719-51.297-14.624-119.822-14.599-119.844c-31.197,5.819-54.584,29.901-54.584,58.733 c0,29.152,23.717,55.509,54.691,60.277c4.809,0.74,10.328,1.355,16.221,1.863C224.256,706.76,223.683,706.416,223.093,706.068"/><path fill="#895D3D" d="M221.181,702.367c-10.369,5.987-24.203,1.439-30.898-10.158c-6.696-11.597-3.718-25.851,6.651-31.838 c10.369-5.987,24.203-1.438,30.898,10.158C234.528,682.126,231.55,696.38,221.181,702.367"/><path fill="#7A5336" d="M223.968,707.339c-10.37,5.987-24.204,1.439-30.9-10.157c-6.696-11.599-3.718-25.853,6.652-31.841 c10.37-5.986,24.204-1.438,30.9,10.159S234.338,701.353,223.968,707.339"/><path fill="#AF7146" d="M222.039,703.99c-6.286,3.629-14.671,0.872-18.73-6.158s-2.254-15.672,4.031-19.301 c6.286-3.629,14.671-0.872,18.73,6.159C230.13,691.721,228.325,700.361,222.039,703.99"/><path fill="#986844" d="M448.919,618.969c0.001,0,0.001,0,0.002-0.002c11.16-20.164,34.903-34.089,62.391-34.089 c38.209,0,69.184,26.898,69.184,60.078c0,29.154-23.721,55.511-54.691,60.279c-30.973,4.771-91.396,4.271-91.396,4.271 C419.568,698.652,436.227,641.518,448.919,618.969"/><path fill="#895D3D" d="M511.312,706.068c86.721-51.297,14.624-119.822,14.6-119.844c31.196,5.819,54.584,29.901,54.584,58.733 c0,29.152-23.72,55.509-54.691,60.277c-4.809,0.74-10.328,1.355-16.221,1.863C510.148,706.76,510.722,706.416,511.312,706.068"/><path fill="#895D3D" d="M537.496,660.342c10.37,5.987,13.348,20.242,6.652,31.839c-6.696,11.598-20.53,16.146-30.9,10.159 c-10.37-5.988-13.348-20.242-6.652-31.84C513.292,658.902,527.126,654.354,537.496,660.342"/><path fill="#7A5336" d="M534.735,665.336c10.37,5.986,13.348,20.241,6.652,31.839c-6.696,11.598-20.53,16.146-30.9,10.158 c-10.369-5.987-13.348-20.241-6.652-31.84C510.531,663.896,524.365,659.349,534.735,665.336"/><path fill="#AF7146" d="M527.06,678.536c6.284,3.629,8.09,12.27,4.03,19.299c-4.059,7.03-12.443,9.787-18.729,6.158 s-8.09-12.269-4.031-19.299S520.774,674.907,527.06,678.536"/><path fill="#895D3D" d="M199.766,535.08c-0.544,1.215-1.082,2.433-1.605,3.652c-0.039,0.092-0.077,0.186-0.115,0.277 c-14.933,51.512-6.141,68.608,9.312,98.692c3.93,7.648,35.811,47.408,71.297,71.701c12.555,0.174,21.32,0.104,21.342,0.104 c21.312,3.178,39.883,4.811,51.96,5.625c-3.273-74.082-33.919-172.23-33.919-172.23s-32.355-74.334-66.6-79.25 c-1.262,1.139-2.508,2.293-3.74,3.461c-0.041,0.039-0.082,0.078-0.123,0.117c-2.432,2.312-4.81,4.684-7.129,7.113 c-0.076,0.082-0.152,0.159-0.229,0.239c-2.29,2.408-4.525,4.871-6.701,7.388c-0.078,0.088-0.154,0.178-0.231,0.266 c-1.081,1.254-2.147,2.521-3.199,3.799c-0.046,0.056-0.089,0.109-0.134,0.164c-1.031,1.258-2.05,2.529-3.053,3.81 c-0.047,0.061-0.094,0.118-0.141,0.178c-0.996,1.274-1.978,2.563-2.945,3.863c-0.12,0.159-0.239,0.321-0.359,0.483 c-1.906,2.572-3.755,5.188-5.544,7.842c-0.147,0.22-0.294,0.437-0.439,0.654c-0.876,1.309-1.739,2.625-2.586,3.953 c-0.056,0.086-0.11,0.174-0.167,0.264c-0.793,1.248-1.572,2.508-2.34,3.771c-0.142,0.231-0.284,0.465-0.425,0.699 c-0.787,1.307-1.562,2.623-2.319,3.944c-0.135,0.234-0.268,0.474-0.402,0.707c-0.69,1.213-1.369,2.437-2.036,3.662 c-0.101,0.187-0.203,0.369-0.304,0.555c-0.717,1.33-1.418,2.671-2.104,4.013c-0.154,0.301-0.307,0.602-0.459,0.901 c-0.694,1.371-1.379,2.746-2.043,4.129c-0.721,1.503-1.421,3.011-2.106,4.523C200.037,534.461,199.903,534.771,199.766,535.08"/><path fill="#986844" d="M329.13,542.9c0,0,34.202,109.535,34.202,184.518c-77.286,0-138.331-76.969-144.881-89.717 c-18.19-35.412-27.16-52.815,0.94-129.553C262.624,390.086,329.13,542.9,329.13,542.9"/><path fill="#986844" d="M512.118,533.192c81.671-2.794,94.43-17.646,120.411-47.81c9.354-10.858,57.744-96.353,28.703-167.975 c-69.486,28.175-158.145,101.027-158.145,101.027S386.463,537.488,512.118,533.192"/><path fill="#986844" d="M422.092,171.018l-24.65,23.26l19.974,28.696l38.979,3.52C456.395,226.493,444.909,193.893,422.092,171.018"/><polygon fill="#895D3D" points="401.977 200.793 397.442 194.277 422.092 171.018 420.197 206.285"/><path fill="#986844" d="M214.32,207.559l31.109,13.454l-8.984,33.789l-35.44,16.608 C201.004,271.408,200.677,236.845,214.32,207.559"/><polygon fill="#895D3D" points="243.39 228.685 245.428 221.011 214.32 207.559 228.137 240.063"/><path fill="#986844" d="M517.611,288.559c-45.317-67.649-121.814-113.766-199.562-100.093 c-77.747,13.674-133.918,83.123-153.438,162.175c-19.518,79.051-4.093,166.938-4.093,166.938 c73.104,69.142,222.792,41.969,222.792,41.969s149.977-25.529,195.104-115.464C578.417,444.084,562.93,356.208,517.611,288.559"/><path fill="#895D3D" d="M315.92,536.52c-2.888-16.421,22.288-34.571,56.231-40.54s63.801,2.503,66.688,18.924 c2.888,16.421-22.287,34.571-56.231,40.54C348.665,561.412,318.808,552.94,315.92,536.52"/><path d="M314.907,530.769c-2.887-16.419,22.288-34.568,56.232-40.537c33.943-5.969,63.8,2.502,66.688,18.921 s-22.288,34.568-56.231,40.537C347.651,555.658,317.794,547.188,314.907,530.769"/><path fill="#B78563" d="M307.658,492.734c1.3,7.391-3.637,14.432-11.025,15.731c-7.389,1.299-14.434-3.636-15.734-11.025 c-1.3-7.39,3.638-14.433,11.028-15.732C299.316,480.409,306.359,485.344,307.658,492.734"/><path d="M297.251,486.914c5.616,0,10.169,4.554,10.169,10.169c0,5.616-4.553,10.169-10.169,10.169 c-5.616,0-10.169-4.553-10.169-10.169C287.082,491.468,291.635,486.914,297.251,486.914"/><path fill="#FFF" d="M297.684,491.149c1.815,0,3.287,1.472,3.287,3.287c0,1.814-1.472,3.287-3.287,3.287 c-1.815,0-3.287-1.473-3.287-3.287C294.397,492.621,295.869,491.149,297.684,491.149"/><path fill="#B78563" d="M432.284,470.816c1.3,7.39,8.343,12.325,15.73,11.025s12.327-8.342,11.027-15.731 s-8.345-12.325-15.732-11.026C435.921,456.385,430.984,463.426,432.284,470.816"/><path d="M443.55,461.186c5.616,0,10.169,4.553,10.169,10.169s-4.553,10.169-10.169,10.169s-10.169-4.553-10.169-10.169 S437.934,461.186,443.55,461.186"/><path fill="#FFF" d="M442.24,465.727c1.814,0,3.287,1.472,3.287,3.287c0,1.814-1.473,3.287-3.287,3.287 c-1.815,0-3.287-1.473-3.287-3.287C438.953,467.198,440.425,465.727,442.24,465.727"/><path fill="#895D3D" d="M197.041,508.737c0,0,25.214,30.07,57.872,51.197c-34.383-5.953-69.006-18.347-94.392-42.356 c0,0-15.425-87.889,4.092-166.94c12.733-51.571,41.069-99.049,80.816-129.627C243.717,222.562,157.594,301.758,197.041,508.737 M541.095,448.229c0,0-13.439,36.868-36.931,67.87c30.289-17.326,58.604-40.789,74.276-72.021c0,0-15.486-87.877-60.804-155.527 c-29.564-44.132-72.398-79.093-120.193-94.276C399.579,195.15,507.557,240.211,541.095,448.229"/><rect width="249.096" height="7.711" x="600.634" y="282.441" fill="#BA7D4A" transform="matrix(0.8859 -0.4639 0.4639 0.8859 -50.061 369.0768)"/><rect width="249.088" height="7.711" x="-27.164" y="642.831" fill="#BA7D4A" transform="matrix(-0.7303 0.6831 -0.6831 -0.7303 610.2582 1052.4478)"/><g opacity=".05"><g><defs><rect id="SVGID_1_" width="626.782" height="572.653" x="3.822" y="10.018"/></defs><clipPath id="SVGID_2_"><use overflow="visible" xlink:href="#SVGID_1_"/></clipPath><polygon points="630.604 348.233 454.774 10.018 3.822 244.457 91.737 413.564 179.652 582.671" clip-path="url(#SVGID_2_)"/></g></g><rect width="508.276" height="381.209" x="63.106" y="95.738" fill="#DA9A5B" transform="matrix(-0.8873 0.4613 -0.4613 -0.8873 730.8033 394.0652)"/><g opacity=".05"><g><defs><rect id="SVGID_3_" width="169.107" height="257.022" x="3.822" y="146.542"/></defs><clipPath id="SVGID_4_"><use overflow="visible" xlink:href="#SVGID_3_"/></clipPath><polygon points="91.737 403.564 172.929 146.542 3.822 234.457" clip-path="url(#SVGID_4_)"/></g></g><path fill="#191009" d="M422.833,251.128L227.712,352.566l-34.085-65.562l97.561-50.719l-5.477-10.536l43.319-22.521l5.477,10.536 l54.243-28.2L422.833,251.128z M383.487,202.432l-21.554,11.206l17.028,32.754l-10.836,5.633l-17.026-32.753l-10.744,5.584 l22.52,43.318l43.134-22.424L383.487,202.432z M352.24,273.945l-28.533-54.568l-21.463,11.158l5.666,10.899l-21.731,11.299 l22.737,43.735L352.24,273.945z M325.43,274.5l-11.317,5.883l-11.564-22.244l11.318-5.884L325.43,274.5z M297.995,302.147 l-22.521-43.319l-21.588,11.224l16.907,32.521l-10.801,5.616l-16.908-32.523l-10.784,5.607l16.839,32.391l-10.809,5.62 l-16.839-32.392l-10.799,5.614l22.52,43.317L297.995,302.147z"/><g opacity=".05"><g><defs><rect id="SVGID_5_" width="498.841" height="326.533" x="124.833" y="232.734"/></defs><clipPath id="SVGID_6_"><use overflow="visible" xlink:href="#SVGID_5_"/></clipPath><rect width="508.277" height="103.777" x="120.115" y="344.113" clip-path="url(#SVGID_6_)" transform="matrix(-0.8873 0.4613 -0.4613 -0.8873 888.9788 574.7203)"/></g></g><rect width="508.277" height="103.775" x="127.444" y="358.204" fill="#BA7D4A" transform="matrix(-0.8873 0.4613 -0.4613 -0.8873 909.3092 597.9314)"/></g></svg>