<?xml version="1.0" encoding="utf-8"?>
<!-- Generator: Adobe Illustrator 16.0.4, SVG Export Plug-In . SVG Version: 6.00 Build 0)  -->
<!DOCTYPE svg PUBLIC "-//W3C//DTD SVG 1.1//EN" "http://www.w3.org/Graphics/SVG/1.1/DTD/svg11.dtd">
<svg version="1.1" id="Layer_1" xmlns="http://www.w3.org/2000/svg" xmlns:xlink="http://www.w3.org/1999/xlink" x="0px" y="0px"
	 width="1920px" height="1920px" viewBox="0 0 1920 1920" enable-background="new 0 0 1920 1920" xml:space="preserve">
<g id="tiles" opacity="0.1">
	
		<linearGradient id="SVGID_1_" gradientUnits="userSpaceOnUse" x1="-194.3486" y1="443.4995" x2="-194.3489" y2="-159.1021" gradientTransform="matrix(1 0 0 1 1128 1309)">
		<stop  offset="0" style="stop-color:#FFFFFF"/>
		<stop  offset="0.3268" style="stop-color:#000000"/>
	</linearGradient>
	<polygon fill="url(#SVGID_1_)" points="945.477,1149.898 933.651,1149.898 921.826,1149.898 910,1752.5 933.651,1752.5 
		957.303,1752.5 	"/>
	
		<linearGradient id="SVGID_2_" gradientUnits="userSpaceOnUse" x1="-890.748" y1="28.9023" x2="-279.5723" y2="28.9023" gradientTransform="matrix(1 0 0 1 1128 1309)">
		<stop  offset="0" style="stop-color:#FFFFFF"/>
		<stop  offset="0.3268" style="stop-color:#000000"/>
	</linearGradient>
	<rect x="237.252" y="1331.028" fill="url(#SVGID_2_)" width="611.176" height="13.748"/>
	<g>
		<g>
			
				<linearGradient id="SVGID_3_" gradientUnits="userSpaceOnUse" x1="-849.937" y1="36.3389" x2="-238.7607" y2="36.3389" gradientTransform="matrix(1 0 0 1 1128 1309)">
				<stop  offset="0" style="stop-color:#FFFFFF"/>
				<stop  offset="0.3268" style="stop-color:#000000"/>
			</linearGradient>
			<rect x="278.063" y="1338.465" fill="url(#SVGID_3_)" width="611.176" height="13.748"/>
			<ellipse cx="353.771" cy="1371.996" rx="13.46" ry="6.219"/>
			<ellipse cx="493.771" cy="1371.996" rx="13.459" ry="6.219"/>
		</g>
		<g>
			
				<linearGradient id="SVGID_4_" gradientUnits="userSpaceOnUse" x1="676.4414" y1="36.3389" x2="1287.6191" y2="36.3389" gradientTransform="matrix(-1 0 0 1 2315.6816 1309)">
				<stop  offset="0" style="stop-color:#FFFFFF"/>
				<stop  offset="0.3268" style="stop-color:#000000"/>
			</linearGradient>
			<rect x="1028.062" y="1338.465" fill="url(#SVGID_4_)" width="611.178" height="13.748"/>
			<ellipse cx="1563.532" cy="1311.996" rx="13.46" ry="6.219"/>
			<ellipse cx="1423.532" cy="1311.996" rx="13.46" ry="6.219"/>
		</g>
	</g>
</g>
<g id="front_bolts">
	<g>
		<g>
			<path fill="#AAAAAA" d="M1026.415,1572.628l-29.915-1.546c0,0,4.173,7.924,14.957,18.709v18.709c0,2.762,6.697,5,14.957,5
				c8.262,0,14.959-2.238,14.959-5v-18.709c10.785-10.785,14.958-18.709,14.958-18.709L1026.415,1572.628z"/>
			<path fill="#999999" d="M1046.031,1571.614c-1.105,1.916-5.482,9.001-14.658,18.177v12.238v11.184c5.82-0.685,10-2.533,10-4.713
				v-3.154v-15.555c10.785-10.785,14.958-18.709,14.958-18.709L1046.031,1571.614z"/>
			<ellipse fill="#C4C4C4" cx="1026.416" cy="1571.082" rx="29.916" ry="11.582"/>
		</g>
		<ellipse fill="#C4C4C4" cx="1010.083" cy="1473.164" rx="24.583" ry="8.559"/>
	</g>
</g>
<ellipse id="shadow" opacity="0.1" enable-background="new    " cx="933.049" cy="1418.839" rx="283.381" ry="68.054"/>
<g id="npm-wombat_1_">
	<g>
		<g id="body__x2B__legs_1_">
			<g id="body_3_">
				<g id="body_4_">
					<path id="body_5_" fill="#986844" d="M1270.388,1104.814C1215.98,991.393,1104.65,902.04,974.16,902.04
						c-130.485,0-241.816,89.353-296.228,202.771c-54.407,113.429-54.46,249.319-54.46,249.319
						c118.524,80.147,350.688,86.521,350.688,86.521s232.206-6.391,350.687-86.521
						C1324.847,1354.134,1324.796,1218.237,1270.388,1104.814z"/>
					<g id="body_shadow_1_">
						<path fill="#895D3D" d="M765.793,1411.867c-135.034-122.053-51.083-339.339-51.083-339.339l39.117-54.427
							c0,0-13.179,4.335-25.65,7.979c-19.846,24.116-36.787,50.688-50.241,78.735c-50.69,105.676-54.198,230.837-54.44,247.441
							c0,0.03-0.001,0.062-0.001,0.093c-0.003,0.207-0.005,0.396-0.007,0.562c0,0.036,0,0.071-0.001,0.104
							c-0.002,0.149-0.003,0.283-0.006,0.402c0,0.062,0,0.111,0,0.167c0,0.077-0.002,0.15-0.002,0.213c0,0.063,0,0.104,0,0.149
							c0,0.104,0,0.182,0,0.182C662.659,1380.631,714.264,1399.062,765.793,1411.867
							C765.794,1411.867,765.794,1411.867,765.793,1411.867z"/>
						<path fill="#895D3D" d="M1182.581,1411.867c135.034-122.053,51.084-339.339,51.084-339.339l-39.117-54.431
							c0,0,13.186,4.336,25.65,7.979c19.846,24.117,36.787,50.688,50.242,78.732c50.688,105.68,54.197,230.84,54.438,247.444
							c0,0.031,0.001,0.062,0.002,0.094c0.006,0.207,0.008,0.396,0.01,0.562c0,0.037,0.003,0.071,0.003,0.104
							c0.002,0.148,0.005,0.283,0.006,0.401c0.001,0.062,0.002,0.112,0.002,0.167c0,0.078,0.001,0.149,0.002,0.213
							c0,0.062,0,0.104,0,0.15c0.001,0.104,0.001,0.182,0.001,0.182C1285.716,1380.631,1234.111,1399.062,1182.581,1411.867
							L1182.581,1411.867z"/>
					</g>
				</g>
				<g id="belly_1_">
					<path fill="#B78563" d="M974.14,1172.429c-149.29,0-278.978,42.324-344.519,104.488c-6.136,45.533-6.15,77.217-6.15,77.217
						c118.524,80.147,350.688,86.521,350.688,86.521s232.206-6.391,350.688-86.521c0,0-0.017-31.661-6.146-77.168
						C1253.179,1214.776,1123.462,1172.429,974.14,1172.429z"/>
				</g>
			</g>
			<g>
				<g>
					<path id="straps" fill="#2E5DA0" d="M827.307,866.036h60.006v244.302h-60.006V866.036z M1061.245,866.036h60.006v244.302
						h-60.006V866.036z"/>
					<path fill="#2E5DA0" d="M1296.031,1171.314c-157.787,0-175.021-138.984-175.021-138.984h-79.51h-67.34h-0.002H958H827.307
						c0,0-17.23,138.984-175.02,138.984c-28.773,93.974-28.813,182.813-28.813,182.813
						c118.481,80.118,350.519,86.516,350.686,86.521h0.002c0.167-0.006,232.203-6.401,350.684-86.521
						C1324.844,1354.13,1324.805,1265.288,1296.031,1171.314z"/>
					<g>
						<path fill="#295490" d="M692.253,1168.01c-12.206,2.125-25.489,3.307-39.966,3.307c-1.327,4.335-2.593,8.658-3.8,12.964
							c-0.025,0.088-0.05,0.176-0.075,0.264c-0.36,1.286-0.713,2.57-1.063,3.854c-0.063,0.237-0.131,0.479-0.194,0.718
							c-0.342,1.252-0.676,2.502-1.006,3.751c-0.062,0.234-0.125,0.468-0.187,0.702c-0.337,1.282-0.671,2.562-0.999,3.839
							c-0.035,0.136-0.068,0.27-0.104,0.405c-2.187,8.547-4.147,16.981-5.909,25.238c-0.004,0.021-0.009,0.037-0.013,0.058
							c-8.593,40.289-12.409,76.314-14.106,100.348c-0.004,0.062-0.009,0.124-0.013,0.188c-0.052,0.701-0.099,1.393-0.145,2.073
							c-0.012,0.181-0.023,0.359-0.036,0.537c-0.041,0.619-0.081,1.229-0.119,1.829c-0.015,0.231-0.027,0.461-0.043,0.689
							c-0.034,0.562-0.067,1.115-0.102,1.662c-0.017,0.258-0.03,0.51-0.045,0.764c-0.03,0.509-0.062,1.016-0.087,1.508
							c-0.019,0.312-0.034,0.61-0.051,0.914c-0.022,0.424-0.047,0.852-0.068,1.263c-0.038,0.708-0.073,1.4-0.106,2.073
							c-0.007,0.149-0.014,0.289-0.021,0.436c-0.027,0.562-0.055,1.116-0.078,1.651c-0.008,0.169-0.015,0.33-0.021,0.496
							c-0.021,0.509-0.045,1.012-0.064,1.496c-0.006,0.133-0.011,0.261-0.018,0.392c-0.021,0.548-0.043,1.084-0.063,1.601
							c-0.001,0.036-0.002,0.072-0.004,0.108c-0.161,4.221-0.226,7.318-0.252,9.127c0,0.03-0.001,0.062-0.001,0.094
							c-0.003,0.207-0.005,0.396-0.007,0.562c0,0.036,0,0.071-0.001,0.104c-0.002,0.148-0.004,0.282-0.004,0.401
							c0,0.062-0.002,0.111-0.002,0.167c0,0.077,0,0.15,0,0.213c0,0.063,0,0.104-0.003,0.149c0,0.104,0,0.182,0,0.182
							c1.11,0.751,2.232,1.492,3.362,2.23c0.325,0.212,0.652,0.422,0.979,0.633c0.828,0.537,1.664,1.069,2.504,1.6
							c0.356,0.228,0.716,0.452,1.074,0.679c1.008,0.628,2.021,1.252,3.039,1.869c0.149,0.092,0.297,0.184,0.446,0.271
							c1.136,0.688,2.283,1.364,3.438,2.039c0.406,0.238,0.817,0.475,1.229,0.712c0.789,0.456,1.581,0.909,2.376,1.359
							c0.451,0.256,0.901,0.511,1.354,0.764c0.879,0.492,1.764,0.979,2.65,1.466c0.33,0.18,0.656,0.362,0.986,0.541
							c1.146,0.622,2.302,1.237,3.463,1.848c0.493,0.262,0.989,0.519,1.484,0.773c0.744,0.388,1.489,0.773,2.239,1.156
							c0.534,0.271,1.069,0.545,1.606,0.813c0.787,0.396,1.578,0.79,2.37,1.184c0.469,0.229,0.936,0.466,1.405,0.694
							c1.154,0.565,2.318,1.126,3.486,1.684c0.566,0.27,1.137,0.535,1.704,0.804c0.71,0.333,1.421,0.666,2.136,0.996
							c0.604,0.28,1.209,0.559,1.815,0.836c0.722,0.329,1.445,0.655,2.17,0.979c0.573,0.26,1.146,0.519,1.72,0.771
							c1.168,0.52,2.342,1.032,3.521,1.541c0.627,0.271,1.258,0.54,1.889,0.809c0.683,0.291,1.365,0.581,2.049,0.869
							c0.662,0.278,1.324,0.558,1.988,0.831c0.682,0.282,1.365,0.562,2.049,0.843c0.646,0.266,1.289,0.529,1.938,0.791
							c1.184,0.479,2.371,0.95,3.562,1.421c0.671,0.266,1.347,0.524,2.021,0.786c0.668,0.262,1.337,0.521,2.007,0.776
							c0.703,0.271,1.407,0.538,2.112,0.806c0.662,0.25,1.326,0.5,1.99,0.748c0.692,0.259,1.385,0.519,2.077,0.772
							c1.2,0.441,2.403,0.88,3.609,1.312c0.7,0.252,1.403,0.5,2.104,0.75c0.666,0.236,1.332,0.475,2,0.707
							c0.729,0.258,1.461,0.513,2.193,0.766c0.653,0.227,1.309,0.449,1.962,0.674c0.726,0.248,1.451,0.497,2.179,0.742
							c0.893,0.301,1.785,0.598,2.679,0.895c1.039,0.345,2.078,0.687,3.118,1.023c0.677,0.22,1.352,0.438,2.026,0.656
							c0.741,0.237,1.482,0.476,2.227,0.709c0.67,0.215,1.341,0.424,2.011,0.636c0.729,0.228,1.457,0.457,2.187,0.683
							c0.832,0.257,1.666,0.511,2.5,0.765c1.107,0.339,2.215,0.673,3.325,1.005c0.705,0.211,1.41,0.422,2.116,0.63
							c0.736,0.218,1.477,0.434,2.214,0.646c0.692,0.202,1.384,0.401,2.076,0.603c0.721,0.208,1.441,0.416,2.164,0.621
							c0.833,0.234,1.668,0.47,2.502,0.702c1.088,0.307,2.178,0.606,3.267,0.906c0.76,0.208,1.52,0.417,2.277,0.623
							c0.722,0.195,1.443,0.392,2.166,0.583c0.714,0.191,1.429,0.382,2.145,0.57c0.715,0.188,1.428,0.378,2.143,0.562
							c0.816,0.214,1.636,0.426,2.455,0.637c1.082,0.278,2.163,0.556,3.244,0.828c0.799,0.201,1.598,0.404,2.396,0.604
							c0.262,0.063,0.524,0.129,0.787,0.194C688.754,1342.23,682.993,1241.604,692.253,1168.01z"/>
						<path fill="#295490" d="M1296.03,1171.314c-14.455,0-27.72-1.177-39.908-3.295c9.259,73.584,3.496,174.195-73.517,243.824
							c51.504-12.805,103.072-31.229,142.236-57.714C1324.842,1354.13,1324.803,1265.288,1296.03,1171.314z"/>
						<path fill="#295490" d="M887.948,952.477c-110.325,32.809-192.114,111.584-223.541,202.557
							c119.896,50.562,287.883-0.389,287.883-0.389s162.852-47.461,237.526-151.527
							C1113.73,941.718,1000.209,919.094,887.948,952.477z"/>
					</g>
					<path fill="#346BAD" d="M1091.011,1156.616H974.162h-0.004H857.311c0,0-60.811,50.884-60.811,120.884
						c0,0,30.807,58.278,177.66,58.278c146.853,0,177.66-58.278,177.66-58.278C1151.82,1207.5,1091.011,1156.616,1091.011,1156.616z
						"/>
					<path fill="#2E5DA0" d="M945.279,1156.616h-87.968c0,0-8.022,6.716-18.237,18.616
						C888.81,1170.818,929.534,1160.856,945.279,1156.616z"/>
					<g id="stithes">
						<path fill="#3E82C6" d="M1221.421,1185.593c-3.877-1.232-7.728-2.589-11.446-4.029l1.807-4.662
							c3.623,1.403,7.376,2.725,11.155,3.927L1221.421,1185.593z M1269.331,1190.198c-3.961-0.4-7.924-0.893-11.779-1.462
							l-0.73,4.946c3.93,0.58,7.97,1.082,12.006,1.49L1269.331,1190.198z M1245.87,1186.711c-3.9-0.777-7.787-1.66-11.552-2.623
							l-1.24,4.844c3.852,0.985,7.827,1.889,11.815,2.684L1245.87,1186.711z M1293.049,1191.589
							c-3.995-0.074-7.991-0.227-11.878-0.452l-0.289,4.992c3.951,0.229,8.014,0.384,12.073,0.46L1293.049,1191.589z
							 M1200.905,1172.278c-3.588-1.666-7.134-3.461-10.537-5.335l-2.412,4.379c3.504,1.931,7.152,3.777,10.844,5.491
							L1200.905,1172.278z M1115.592,1091.639l4.582-2.002c-1.579-3.611-3.047-7.316-4.364-11.011l-4.709,1.68
							C1112.456,1084.108,1113.968,1087.922,1115.592,1091.639z M1112.233,1067.335c-1.392-5.03-2.223-9.04-2.676-11.518
							l-4.918,0.898c0.471,2.578,1.334,6.744,2.775,11.953L1112.233,1067.335z M1131.136,1110.602
							c-2.054-3.332-4.021-6.793-5.847-10.287l-4.432,2.316c1.881,3.598,3.906,7.162,6.021,10.594L1131.136,1110.602z
							 M1180.234,1160.888c-3.305-2.141-6.557-4.418-9.665-6.771l-3.018,3.986c3.205,2.427,6.558,4.775,9.966,6.982
							L1180.234,1160.888z M1144.954,1129.76c-2.512-2.992-4.954-6.13-7.257-9.324l-4.057,2.924
							c2.376,3.294,4.894,6.529,7.483,9.615L1144.954,1129.76z M1161.432,1146.648c-2.939-2.592-5.816-5.328-8.554-8.134
							l-3.578,3.492c2.823,2.894,5.792,5.718,8.825,8.392L1161.432,1146.648z"/>
						<path fill="#3E82C6" d="M974.175,1318.278h-0.015c-4.087,0-8.157-0.048-12.098-0.143l0.119-4.998
							c3.901,0.093,7.932,0.141,11.979,0.141L974.175,1318.278z M986.272,1318.136l-0.119-4.998
							c4.029-0.096,8.055-0.242,11.966-0.437l0.248,4.994C994.413,1317.892,990.344,1318.039,986.272,1318.136z M949.968,1317.696
							c-4.058-0.201-8.124-0.459-12.084-0.767l0.387-4.984c3.915,0.304,7.933,0.559,11.944,0.757L949.968,1317.696z
							 M1010.45,1316.929l-0.387-4.984c4.006-0.312,8.013-0.684,11.91-1.108l0.541,4.971
							C1018.566,1316.236,1014.508,1316.614,1010.45,1316.929z M925.819,1315.808c-4.065-0.442-8.112-0.951-12.028-1.513
							l0.709-4.949c3.861,0.553,7.851,1.055,11.86,1.491L925.819,1315.808z M1034.543,1314.292l-0.709-4.949
							c3.991-0.571,7.958-1.215,11.789-1.913l0.896,4.92C1042.626,1313.058,1038.597,1313.712,1034.543,1314.292z M901.815,1312.353
							c-4.042-0.736-8.045-1.551-11.9-2.422l1.103-4.877c3.786,0.855,7.72,1.656,11.693,2.379L901.815,1312.353z M1058.419,1309.927
							l-1.102-4.877c3.933-0.889,7.822-1.864,11.56-2.899l1.334,4.818C1066.397,1308.025,1062.43,1309.021,1058.419,1309.927z
							 M878.124,1306.973c-3.99-1.104-7.907-2.304-11.642-3.562l1.598-4.738c3.648,1.23,7.476,2.402,11.378,3.482L878.124,1306.973z
							 M1081.852,1303.405l-1.598-4.738c3.842-1.295,7.586-2.689,11.13-4.145l1.898,4.625
							C1089.641,1300.644,1085.795,1302.075,1081.852,1303.405z M855.051,1299.153c-3.89-1.597-7.635-3.302-11.131-5.067
							l2.253-4.463c3.381,1.707,7.008,3.357,10.778,4.905L855.051,1299.153z M1104.412,1294.078l-2.252-4.463
							c0.408-0.207,0.811-0.412,1.205-0.616c3.174-1.644,6.225-3.387,9.068-5.181l2.668,4.229c-2.963,1.87-6.139,3.685-9.438,5.393
							C1105.252,1293.652,1104.836,1293.865,1104.412,1294.078z M833.229,1288.054c-3.629-2.29-7.004-4.704-10.034-7.177
							l3.161-3.873c2.873,2.344,6.083,4.64,9.541,6.821L833.229,1288.054z M1125.137,1280.868l-3.162-3.873
							c3.024-2.47,5.64-4.955,7.772-7.387l0.937,0.821l3.379-0.234l0.124,1.935l-0.68,0.775
							C1131.191,1275.545,1128.376,1278.224,1125.137,1280.868z M819.242,1270.557l-4.988-0.346c0.28-4.037,0.8-8.146,1.546-12.214
							l4.918,0.9C820.005,1262.782,819.509,1266.705,819.242,1270.557z M1127.578,1258.889c-0.701-3.781-1.628-7.633-2.754-11.448
							l4.795-1.416c1.175,3.98,2.143,8.002,2.875,11.952L1127.578,1258.889z M823.445,1247.44l-4.799-1.404
							c1.125-3.848,2.472-7.751,4.003-11.602l4.646,1.848C825.822,1239.987,824.527,1243.742,823.445,1247.44z M1120.948,1236.289
							c-1.43-3.576-3.063-7.206-4.857-10.787l4.471-2.238c1.856,3.705,3.548,7.464,5.029,11.17L1120.948,1236.289z
							 M832.131,1225.487l-4.475-2.232c1.787-3.581,3.765-7.19,5.88-10.728l4.291,2.566
							C835.778,1218.521,833.861,1222.019,832.131,1225.487z M1110.381,1215.112c-1.993-3.331-4.163-6.686-6.447-9.973l4.105-2.854
							c2.349,3.379,4.58,6.83,6.633,10.258L1110.381,1215.112z M844.272,1205.122l-4.104-2.855c2.292-3.295,4.746-6.589,7.292-9.79
							l3.913,3.113C848.893,1198.707,846.504,1201.914,844.272,1205.122z M1096.839,1195.599c-2.452-3.09-5.035-6.147-7.677-9.088
							l3.721-3.342c2.708,3.017,5.357,6.152,7.872,9.322L1096.839,1195.599z M859.063,1186.516l-3.712-3.35
							c2.65-2.937,5.344-5.742,8.008-8.34l0.729-0.71h1.666v3.165l1.097,1.125C864.263,1180.93,861.643,1183.658,859.063,1186.516z
							 M1082.488,1179.116h-12.041v-5h12.041V1179.116z M1058.406,1179.116h-12.04v-5h12.04V1179.116z M1034.325,1179.116h-12.041
							v-5h12.041V1179.116z M1010.243,1179.116h-12.04v-5h12.04V1179.116z M986.162,1179.116h-12.041v-5h12.041V1179.116z
							 M962.08,1179.116H950.04v-5h12.041V1179.116z M937.999,1179.116h-12.041v-5h12.041V1179.116z M913.917,1179.116h-12.041v-5
							h12.041V1179.116z M889.835,1179.116h-12.041v-5h12.041V1179.116z"/>
					</g>
				</g>
				<g id="buttons">
					<g>
						<path fill="#B7AEA1" d="M858.666,1086.64c-15.797,0-28.646-12.852-28.646-28.646c0-15.797,12.852-28.647,28.646-28.647
							s28.646,12.853,28.646,28.647C887.312,1073.788,874.461,1086.64,858.666,1086.64z"/>
						<circle fill="#C9BFAF" cx="858.665" cy="1057.992" r="20.835"/>
					</g>
					<g>
						<path fill="#B7AEA1" d="M1089.893,1086.64c-15.797,0-28.646-12.852-28.646-28.646c0-15.797,12.851-28.647,28.646-28.647
							c15.797,0,28.646,12.853,28.646,28.647C1118.539,1073.788,1105.688,1086.64,1089.893,1086.64z"/>
						<circle fill="#C9BFAF" cx="1089.892" cy="1057.992" r="20.834"/>
					</g>
				</g>
			</g>
			<g id="legs_1_">
				<g id="leg_3_">
					<path fill="#2E5DA0" d="M827.944,1265.888c-0.001-0.002-0.003-0.002-0.003-0.004c-20.121-36.354-62.93-61.458-112.486-61.458
						c-68.887,0-124.731,48.495-124.731,108.315c0,52.562,42.761,100.077,98.604,108.678c55.843,8.6,164.779,7.699,164.779,7.699
						C880.861,1409.55,850.827,1306.54,827.944,1265.888z"/>
					<g id="shadow_8_">
						<path fill="#295490" d="M715.454,1422.919c-156.347-92.484-26.365-216.027-26.321-216.068
							c-56.246,10.493-98.41,53.914-98.41,105.896c0,52.562,42.763,100.077,98.604,108.678c8.67,1.335,18.621,2.44,29.245,3.356
							C717.551,1424.165,716.518,1423.548,715.454,1422.919z"/>
						
							<ellipse transform="matrix(0.5 0.866 -0.866 0.5 1538.7725 91.4861)" fill="#295490" cx="690.156" cy="1378.379" rx="43.711" ry="39.083"/>
					</g>
					<g>
						
							<ellipse transform="matrix(0.5 0.866 -0.866 0.5 1549.0369 91.6367)" fill="#7A5336" cx="695.157" cy="1387.356" rx="43.712" ry="39.084"/>
						
							<ellipse transform="matrix(0.5 0.866 -0.866 0.5 1559.337 91.6414)" fill="#AF7146" cx="700.305" cy="1396.246" rx="26.496" ry="23.692"/>
					</g>
				</g>
				<g id="leg_1_">
					<path fill="#2E5DA0" d="M1122.599,1265.888c0.002-0.002,0.002-0.002,0.005-0.004c20.12-36.354,62.929-61.458,112.48-61.458
						c68.892,0,124.73,48.495,124.73,108.315c0,52.562-42.769,100.077-98.604,108.678c-55.838,8.6-164.775,7.699-164.775,7.699
						C1069.681,1409.55,1099.715,1306.54,1122.599,1265.888z"/>
					<g id="shadow_7_">
						<path fill="#295490" d="M1235.088,1422.919c156.348-92.484,26.364-216.027,26.32-216.068
							c56.246,10.493,98.41,53.914,98.41,105.896c0,52.562-42.765,100.077-98.604,108.678c-8.67,1.335-18.621,2.44-29.244,3.356
							C1232.99,1424.165,1234.023,1423.548,1235.088,1422.919z"/>
						
							<ellipse transform="matrix(0.5 -0.866 0.866 0.5 -563.449 1780.7346)" fill="#295490" cx="1260.455" cy="1378.334" rx="43.713" ry="39.084"/>
					</g>
					<g>
						
							<ellipse transform="matrix(0.5 -0.866 0.866 0.5 -573.7498 1780.9048)" fill="#7A5336" cx="1255.452" cy="1387.34" rx="43.713" ry="39.084"/>
						
							<ellipse transform="matrix(0.5 -0.866 0.866 0.5 -583.998 1780.8665)" fill="#AF7146" cx="1250.301" cy="1396.198" rx="26.497" ry="23.692"/>
					</g>
				</g>
			</g>
		</g>
		<g id="arms_1_">
			<path id="arm_10_" fill="#986844" d="M652.664,1085.438c-33.044,143.576-13.092,172.694,27.398,231.967
				c14.575,21.332,141.055,145.32,279.312,127.974c-16.831-134.139-102.6-322.403-102.6-322.403S703.502,864.531,652.664,1085.438z"
				/>
			<path fill="#895D3D" d="M696.341,1165.928c61.591,16.641,130.154,12.369,180.807,4.727c-12.013-29.327-20.374-47.68-20.374-47.68
				s-41.224-69.498-88.004-105.608l0.003-0.004c-0.1-0.077-0.2-0.151-0.299-0.228c-0.212-0.163-0.425-0.323-0.637-0.484
				c-0.506-0.386-1.013-0.769-1.521-1.146c-0.082-0.062-0.164-0.125-0.246-0.186c-0.001,0.001-0.002,0.001-0.003,0.002
				c-42.707-31.626-89.437-34.027-113.404,70.116c-33.045,143.575-13.092,172.694,27.398,231.966
				c14.577,21.332,141.056,145.321,279.312,127.974C730.691,1361.701,688.531,1249.382,696.341,1165.928z"/>
		</g>
	</g>
	<g id="npm_-_wombat_-_face_2_">
		<g id="ears_2_">
			<g id="ear_6_">
				<path fill="#986844" d="M945.828,441.252l-39.85,46.324l41.187,47.719l70.556-0.984
					C1017.721,534.31,991.021,478.001,945.828,441.252z"/>
				<polygon fill="#895D3D" points="915.329,498.409 905.979,487.575 945.828,441.252 949.029,504.848 				"/>
			</g>
			<g id="ear_5_">
				<path fill="#986844" d="M580.095,545.666l58.302,18.302l-9.784,62.271l-60.443,36.415
					C568.167,662.652,561.114,600.735,580.095,545.666z"/>
				<polygon fill="#895D3D" points="636.175,578.104 638.396,563.967 580.095,545.666 610.955,601.365 				"/>
			</g>
		</g>
		<path id="head_3_" fill="#986844" d="M1139.109,634.146c-93.926-112.822-239.728-181.2-376.582-142.131
			c-136.854,39.071-224.581,174.118-244.791,319.526c-20.203,145.405,23.906,300.117,23.906,300.117
			c144.029,110.299,407.362,33.557,407.362,33.557s264.152-73.849,328.24-243.562
			C1277.253,901.649,1233.034,746.968,1139.109,634.146z"/>
		<g id="nose_4_">
			
				<ellipse id="nose_9_" transform="matrix(-0.9616 0.2745 -0.2745 -0.9616 2126.292 1873.7601)" fill="#895D3D" cx="932.043" cy="1085.652" rx="112.507" ry="54.425"/>
			
				<ellipse id="nose_5_" transform="matrix(-0.9616 0.2745 -0.2745 -0.9616 2117.8467 1854.6964)" cx="929.154" cy="1075.53" rx="112.509" ry="54.422"/>
		</g>
		<g id="face_2_">
			<g id="eyes_2_">
				<g id="eye_4_">
					<path fill="#B78563" d="M800.843,1039.564c3.713,13.007-3.821,26.559-16.828,30.271c-13.002,3.712-26.562-3.817-30.274-16.823
						c-3.714-13.01,3.822-26.562,16.829-30.273C783.577,1019.023,797.128,1026.555,800.843,1039.564z"/>
					<circle cx="782.996" cy="1049.312" r="18.333"/>
					<circle fill="#FFFFFF" cx="783.276" cy="1044.482" r="5.926"/>
				</g>
				<g id="eye_3_">
					<path fill="#B78563" d="M1020.216,976.938c3.713,13.007,17.271,20.534,30.273,16.822c13.004-3.712,20.542-17.264,16.829-30.271
						c-3.715-13.011-17.271-20.539-30.274-16.827C1024.037,950.375,1016.502,963.926,1020.216,976.938z"/>
					<circle cx="1040.518" cy="975.792" r="18.333"/>
					<circle fill="#FFFFFF" cx="1037.73" cy="971.839" r="5.927"/>
				</g>
			</g>
		</g>
		<path fill="#895D3D" d="M1139.156,634.125c-61.278-73.6-144.631-128.276-233.176-146.555c0.73,0.214,8.092,2.42,20.229,8.118
			c-52.683-3.237-102.548,2.594-134.126,8.092c0.048-0.744-0.019-1.473-0.221-2.179c-2.01-7.04-16.078-9.197-31.422-4.816
			c-15.344,4.38-26.153,13.638-24.143,20.679c0.143,0.501,0.354,0.976,0.616,1.427c-25.409,9.918-65.208,27.822-105.19,53.561
			c3.852-5.303,6.325-8.1,6.671-8.487c-4.064,3.861-8.038,7.832-11.919,11.905c-0.004,0.002-0.007,0.004-0.011,0.007
			c-1.727,1.812-3.427,3.651-5.115,5.504c-0.589,0.646-1.174,1.295-1.759,1.946c-1.031,1.148-2.053,2.305-3.07,3.468
			c-1.498,1.71-2.978,3.44-4.445,5.182c-0.5,0.594-1.006,1.181-1.502,1.779c0,0.001,0,0.002,0,0.003
			c-49.625,59.668-81.627,137.12-92.835,217.776c-20.203,145.404,23.908,300.116,23.908,300.116
			c50.015,38.304,114.421,54.047,177.188,58.284c-62.514-31.767-113.354-80.971-113.354-80.971c-1.003-3.333-1.979-6.643-2.94-9.94
			c43.679-30.084,123.498-128.627,272.012-171.025c162.727-46.457,291.014,7.88,334.661,1.18c0.632,2.287,1.264,4.576,1.888,6.887
			c0,0-1.632,6.507-4.945,17.255c-63.555-1.676-99.936,42.939-99.936,42.939s-39.477,55.928-74.798,138.621
			c37.82-16.377,83.625-39.611,126.173-70.229c-0.006,0.009-0.011,0.017-0.016,0.025c51.07-36.737,97.456-84.109,119.713-143.048
			C1277.295,901.629,1233.076,746.949,1139.156,634.125z"/>
		<g id="baseball_cap_6_">
			<g id="nub_6_">
				
					<ellipse transform="matrix(-0.9616 0.2745 -0.2745 -0.9616 1627.855 755.2593)" fill="#DCDDAC" cx="761.081" cy="491.533" rx="28.892" ry="13.257"/>
				
					<ellipse transform="matrix(-0.9616 0.2745 -0.2745 -0.9616 1635.1226 771.7119)" fill="#B7B69E" cx="763.566" cy="500.263" rx="28.892" ry="13.259"/>
			</g>
			<g id="cap_6_">
				<path fill="#DCDDAC" d="M1045.193,503.28c-107.506-50.781-260.356-19.68-284.15-12.887
					c-23.79,6.792-170.025,61.075-234.516,160.96c-64.487,99.885-26.29,279.504-5.59,306.185c0,0,161.688-156.465,316.207-200.578
					c154.523-44.115,374.448,3.403,374.448,3.403C1215.083,726.776,1152.696,554.062,1045.193,503.28z"/>
				<path id="shadow_13_" fill="#D1D1AA" d="M520.938,957.538c-20.698-26.681-58.897-206.3,5.59-306.185
					c30.049-46.543,77.851-83.183,122.74-109.729c-57.733,50.752-140.787,98.127-75.101,343.501
					c-20.909,20.082-39.774,41.938-55.215,65.46L520.938,957.538z M1211.593,760.363c3.49-33.587-58.896-206.301-166.398-257.083
					c-50.097-23.662-110.031-29.544-162.177-28.391c75.828,12.622,171.375,9.01,245.138,252.077
					c28.358,6.018,55.918,14.619,81.45,26.443l1.985,6.952L1211.593,760.363L1211.593,760.363z"/>
				<path fill="#C6C6A3" d="M775.333,486.988c-6.485,1.369-11.371,2.572-14.29,3.405c-2.917,0.833-7.702,2.391-13.93,4.65
					l75.263,263.625l28.219-8.057L775.333,486.988z"/>
			</g>
			<g id="lip_6_">
				<path fill="#66655D" d="M1234.318,828.713l-25.854-90.558c-119.933-35.054-293.838-7.581-372.446,14.859
					c-78.604,22.441-240.805,90.925-324.151,184.013l25.854,90.558c0,0,10.08,50.708,49.382,39.487s119.405-131.1,287.453-179.074
					c168.049-47.977,299.37,11.543,338.672,0.322C1252.528,877.101,1234.318,828.713,1234.318,828.713z"/>
				<path fill="#5C5B54" d="M617.123,1047.775c-12.026,10.009-21.896,16.978-30.021,19.297
					c-39.302,11.221-49.381-39.488-49.381-39.488l-25.853-90.558c16.756-18.714,36.703-36.429,58.511-52.98L617.123,1047.775z
					 M1177.547,887.78c15.491,2.151,27.561,2.857,35.682,0.54c39.3-11.221,21.091-59.607,21.091-59.607l-25.854-90.558
					c-24.107-7.047-50.402-11.562-77.661-14.104L1177.547,887.78z"/>
				<path fill="#999782" d="M1230.659,815.896l-25.854-90.557c-119.933-35.053-293.838-7.579-372.445,14.862
					c-78.604,22.44-240.806,90.922-324.153,184.01l25.854,90.556c0,0,10.08,50.71,49.383,39.49
					c39.301-11.221,119.404-131.1,287.453-179.075c168.049-47.977,299.369,11.543,338.672,0.322
					C1248.87,864.286,1230.659,815.896,1230.659,815.896z"/>
				<path fill="#898875" d="M613.464,1034.962c-12.026,10.01-21.896,16.979-30.02,19.299c-39.303,11.22-49.382-39.489-49.382-39.489
					l-25.853-90.559c16.757-18.712,36.703-36.431,58.512-52.978L613.464,1034.962z M1173.889,874.966
					c15.492,2.154,27.561,2.86,35.683,0.542c39.299-11.22,21.09-59.608,21.09-59.608l-25.854-90.559
					c-24.107-7.044-50.402-11.562-77.66-14.101L1173.889,874.966z"/>
				<path fill="#D1D1AA" d="M1190.792,786.627c0.208,0.696,5.058,17.444-6.568,30.533c-4.729,5.325-11.525,9.28-20.196,11.756
					c-13.827,3.947-31.794,2.229-56.659-0.153c-50.504-4.835-126.826-12.138-243.666,21.22
					c-116.838,33.355-177.8,79.853-218.14,110.621c-19.862,15.15-34.213,26.097-48.037,30.043
					c-8.676,2.478-16.535,2.705-23.364,0.681c-16.79-4.979-21.507-21.76-21.699-22.474l-19.782-69.292
					c1.148-1.057,2.329-2.101,3.499-3.149l20.354,71.293c0.046,0.174,4.637,16.443,20.012,20.998
					c5.891,1.745,12.706,1.536,20.249-0.617c12.662-3.615,26.646-14.28,46.001-29.043c40.687-31.034,102.175-77.933,220.176-111.62
					c117.995-33.687,194.982-26.321,245.918-21.445c24.232,2.321,41.738,3.994,54.406,0.378c7.541-2.152,13.437-5.572,17.518-10.163
					c10.652-11.984,5.966-28.229,5.916-28.39l-20.355-71.304c1.546,0.272,3.102,0.536,4.635,0.828L1190.792,786.627
					L1190.792,786.627z M550.593,884.005l16.999,59.543c0.122,0.453,3.09,11.101,15.799,14.883
					c6.813,2.028,15.096,1.686,24.606-1.029c12.848-3.669,26.628-12.536,45.711-24.81c38.814-24.968,97.465-62.696,206.771-93.9
					c109.301-31.205,179.034-30.13,225.184-29.418c22.682,0.353,39.074,0.604,51.916-3.062c9.511-2.715,16.727-6.794,21.444-12.115
					c8.793-9.925,5.696-20.533,5.563-20.964l-17.004-59.56c-1.518-0.205-3.041-0.403-4.567-0.594l17.511,61.329
					c0.028,0.096,2.92,9.979-4.909,18.812c-4.069,4.592-10.386,8.134-18.771,10.526c-11.918,3.402-27.927,3.153-50.085,2.812
					c-46.505-0.718-116.782-1.8-227.011,29.668c-110.227,31.469-169.341,69.494-208.46,94.655
					c-18.636,11.987-32.099,20.648-44.023,24.054c-8.375,2.393-15.601,2.718-21.477,0.977
					c-11.292-3.353-14.096-13.296-14.126-13.408l-17.504-61.312C552.963,882.06,551.775,883.028,550.593,884.005z M567.342,870.803
					l14.103,49.395c0.124,0.468,3.218,11.524,15.868,15.287c6.33,1.886,13.906,1.596,22.51-0.86
					c12.015-3.431,25.027-11.358,43.031-22.331c36.627-22.321,91.982-56.047,194.297-85.257
					c102.32-29.212,167.131-29.791,210.026-30.17c21.082-0.189,36.312-0.324,48.33-3.756c8.605-2.456,15.189-6.209,19.568-11.151
					c8.758-9.874,5.55-20.898,5.409-21.351l-14.104-49.407c-1.503-0.141-3.002-0.289-4.519-0.415l14.56,50.996
					c0.035,0.1,3.025,10.448-4.761,19.209c-3.733,4.206-9.417,7.419-16.886,9.551c-11.165,3.188-26.043,3.32-46.638,3.504
					c-43.228,0.388-108.555,0.974-211.721,30.426c-103.164,29.452-158.95,63.443-195.864,85.937
					c-17.59,10.717-30.298,18.461-41.465,21.647c-7.472,2.134-13.995,2.405-19.386,0.805c-11.232-3.329-14.157-13.7-14.189-13.815
					l-14.554-50.979C569.743,868.972,568.549,869.89,567.342,870.803z"/>
			</g>
			<g>
				<g>
					<path fill="#B7B69E" d="M673.414,577.729c4.278,4.452-0.609,14.388-10.917,22.188c-10.306,7.801-22.13,10.512-26.408,6.062
						c-4.274-4.452,0.608-14.387,10.915-22.188C657.309,575.99,669.135,573.277,673.414,577.729z M887.583,516.585
						c-1.283,6.04,8.113,11.897,20.983,13.081c12.873,1.184,24.348-2.757,25.633-8.795c1.281-6.04-8.114-11.897-20.986-13.081
						C900.342,506.606,888.868,510.545,887.583,516.585z"/>
					<path fill="#231F20" d="M911.663,515.081c6.165,0.565,10.812,2.659,10.383,4.672c-0.425,2.012-5.767,3.185-11.93,2.619
						c-6.161-0.565-10.812-2.658-10.388-4.673C900.16,515.688,905.504,514.515,911.663,515.081z M652.172,589.163
						c-4.935,3.735-7.782,7.968-6.354,9.451c1.425,1.483,6.58-0.34,11.515-4.074c4.937-3.733,7.778-7.965,6.354-9.452
						C662.262,583.605,657.102,585.431,652.172,589.163z"/>
				</g>
			</g>
		</g>
	</g>
	<g id="arm_3_">
		<g>
			<g>
				<polygon fill="#D1D3D4" points="1051.99,1520.209 1039.782,1571.129 1028.447,1571.145 1017.11,1571.161 1004.759,1520.274 
					1019.056,1501.71 1018.787,1310.433 1037.373,1310.406 1037.643,1501.686 1037.642,1501.684 				"/>
				<polygon fill="#C4C4C4" points="1039.782,1571.129 1004.759,1520.274 1019.056,1501.71 1028.35,1501.697 1028.113,1334.079 
					1037.407,1334.064 1037.642,1501.684 1051.99,1520.209 				"/>
			</g>
			<path fill="#DD811D" d="M1061.82,1346.976c-0.011-6.902-7.956-12.487-17.748-12.477l-33.688,0.048
				c-9.792,0.013-17.723,5.622-17.714,12.526l0.046,32.505c0.011,6.901,7.956,12.488,17.75,12.475l33.688-0.046
				c9.793-0.014,17.721-5.621,17.712-12.527L1061.82,1346.976z"/>
			<g>
				<path fill="#F7941E" d="M1072.534,1400.717c0.009,6.905-6.384,12.512-14.28,12.522l-60.057,0.084
					c-7.896,0.011-14.309-5.577-14.317-12.48l-0.021-17.503c-0.013-6.905,6.385-12.512,14.28-12.521l60.057-0.084
					c7.896-0.014,14.308,5.573,14.316,12.479L1072.534,1400.717z M1071.27,1130.11c-0.012-6.904-6.42-12.493-14.315-12.482
					l-60.058,0.084c-7.896,0.01-14.291,5.617-14.28,12.521l0.302,215.653c0.01,6.904,6.42,12.492,14.317,12.481l60.056-0.086
					c7.899-0.013,14.291-5.617,14.284-12.521L1071.27,1130.11z"/>
				<path fill="#DD811D" d="M1058.254,1413.239l-12.741,0.019l-0.413-295.613l11.854-0.017c7.896-0.011,14.306,5.578,14.316,12.482
					l0.305,215.65c0.006,5.516-4.072,10.196-9.736,11.864l0.021,13.518c6.125,1.405,10.646,6.272,10.656,12.071l0.021,17.501
					C1072.543,1407.622,1066.15,1413.229,1058.254,1413.239z"/>
				<path fill="#DD811D" d="M1009.07,1346.474c-7.102,0.013-12.86-4.038-12.867-9.045l-0.279-198.773
					c-0.007-5.007,5.743-9.071,12.842-9.08c7.102-0.013,12.861,4.039,12.869,9.044l0.278,198.772
					C1021.919,1342.396,1016.17,1346.464,1009.07,1346.474z M1058.262,1337.342l-0.276-198.772
					c-0.01-5.006-5.771-9.059-12.869-9.047c-7.101,0.01-12.851,4.075-12.843,9.079l0.279,198.777
					c0.006,5.005,5.769,9.057,12.867,9.044C1052.518,1346.413,1058.27,1342.347,1058.262,1337.342z"/>
				<path fill="#C6721E" d="M1057.983,1138.567l0.276,198.772c0.007,5.005-5.744,9.071-12.842,9.081l-0.306-216.899
					C1052.213,1129.511,1057.976,1133.562,1057.983,1138.567z"/>
			</g>
		</g>
		<g>
			<path id="arm_9_" fill="#986844" d="M1132.159,971.454c0,0-83.075,103.369-133.515,240.796
				c141.646,51.984,305.297-48.02,325.875-66.974c57.158-52.671,14.97-159.188-8.148-178.38
				C1210.205,886.382,1132.159,971.454,1132.159,971.454z"/>
			<path fill="#895D3D" d="M1324.52,1145.276c36.448-33.585,32.498-89.06,18.858-129.83
				c-47.184,52.993-190.342,197.84-344.733,196.804C1140.29,1264.234,1303.941,1164.23,1324.52,1145.276z"/>
		</g>
	</g>
</g>
</svg>
